<?xml version="1.0" encoding="UTF-8"?>
<svg xmlns="http://www.w3.org/2000/svg" version="1.1" width="300" height="300" viewBox="0 0 300 300"><rect x="0" y="0" width="300" height="300" fill="#ffffff"/><g transform="scale(8.571)"><g transform="translate(1,1)"><path fill-rule="evenodd" d="M8 0L8 3L9 3L9 2L10 2L10 4L11 4L11 3L12 3L12 4L14 4L14 2L15 2L15 4L16 4L16 5L14 5L14 7L13 7L13 6L12 6L12 5L8 5L8 9L7 9L7 8L6 8L6 9L7 9L7 10L5 10L5 8L2 8L2 9L1 9L1 10L0 10L0 14L1 14L1 15L0 15L0 16L2 16L2 17L0 17L0 18L1 18L1 21L0 21L0 25L1 25L1 21L2 21L2 23L3 23L3 24L4 24L4 25L5 25L5 22L6 22L6 23L7 23L7 24L6 24L6 25L7 25L7 24L9 24L9 25L8 25L8 26L10 26L10 24L11 24L11 22L12 22L12 23L13 23L13 24L12 24L12 25L11 25L11 27L9 27L9 28L8 28L8 31L9 31L9 33L10 33L10 31L11 31L11 32L12 32L12 31L11 31L11 30L10 30L10 29L11 29L11 28L13 28L13 29L15 29L15 30L13 30L13 33L14 33L14 31L15 31L15 32L16 32L16 33L17 33L17 32L16 32L16 31L15 31L15 30L16 30L16 27L15 27L15 25L16 25L16 26L17 26L17 24L18 24L18 27L19 27L19 24L20 24L20 26L21 26L21 25L22 25L22 21L20 21L20 19L21 19L21 20L22 20L22 19L23 19L23 21L24 21L24 22L25 22L25 21L30 21L30 22L29 22L29 24L28 24L28 23L27 23L27 24L25 24L25 23L24 23L24 26L22 26L22 27L24 27L24 29L23 29L23 28L21 28L21 27L20 27L20 28L19 28L19 30L18 30L18 29L17 29L17 30L18 30L18 33L19 33L19 32L20 32L20 33L25 33L25 32L23 32L23 31L21 31L21 29L23 29L23 30L24 30L24 31L26 31L26 32L28 32L28 31L27 31L27 30L24 30L24 29L28 29L28 30L30 30L30 29L29 29L29 28L31 28L31 30L32 30L32 29L33 29L33 28L31 28L31 27L32 27L32 26L33 26L33 23L32 23L32 22L33 22L33 18L30 18L30 19L29 19L29 18L28 18L28 20L27 20L27 17L31 17L31 16L32 16L32 17L33 17L33 16L32 16L32 14L33 14L33 11L32 11L32 10L33 10L33 8L30 8L30 10L31 10L31 11L29 11L29 12L31 12L31 13L30 13L30 14L29 14L29 15L30 15L30 16L28 16L28 15L27 15L27 14L28 14L28 13L26 13L26 12L25 12L25 13L26 13L26 15L25 15L25 16L24 16L24 15L23 15L23 14L24 14L24 11L22 11L22 10L25 10L25 11L28 11L28 10L27 10L27 9L28 9L28 8L25 8L25 9L24 9L24 7L25 7L25 5L23 5L23 4L25 4L25 3L24 3L24 2L21 2L21 1L22 1L22 0L21 0L21 1L19 1L19 2L20 2L20 3L17 3L17 4L16 4L16 2L15 2L15 1L18 1L18 0L15 0L15 1L13 1L13 0L12 0L12 2L10 2L10 1L9 1L9 0ZM23 0L23 1L25 1L25 0ZM12 2L12 3L13 3L13 2ZM20 3L20 4L19 4L19 5L18 5L18 4L17 4L17 5L16 5L16 6L15 6L15 7L14 7L14 8L15 8L15 9L13 9L13 7L12 7L12 6L11 6L11 7L10 7L10 6L9 6L9 7L10 7L10 8L12 8L12 13L11 13L11 14L10 14L10 15L11 15L11 16L9 16L9 15L8 15L8 14L9 14L9 12L11 12L11 11L10 11L10 9L9 9L9 12L7 12L7 11L8 11L8 10L7 10L7 11L6 11L6 12L5 12L5 10L4 10L4 9L3 9L3 10L2 10L2 11L3 11L3 15L2 15L2 16L3 16L3 20L2 20L2 21L3 21L3 22L4 22L4 21L6 21L6 22L7 22L7 23L9 23L9 24L10 24L10 22L11 22L11 20L8 20L8 19L9 19L9 18L10 18L10 17L13 17L13 19L12 19L12 18L11 18L11 19L12 19L12 21L15 21L15 24L14 24L14 25L13 25L13 26L12 26L12 27L13 27L13 26L14 26L14 25L15 25L15 24L17 24L17 23L16 23L16 22L18 22L18 24L19 24L19 23L20 23L20 21L19 21L19 20L18 20L18 19L17 19L17 18L18 18L18 17L17 17L17 16L19 16L19 13L21 13L21 14L20 14L20 17L19 17L19 18L20 18L20 17L22 17L22 18L23 18L23 19L24 19L24 18L23 18L23 17L22 17L22 16L21 16L21 15L22 15L22 13L23 13L23 12L22 12L22 13L21 13L21 11L19 11L19 13L17 13L17 14L15 14L15 12L16 12L16 11L17 11L17 12L18 12L18 10L17 10L17 9L16 9L16 8L17 8L17 7L18 7L18 9L20 9L20 10L21 10L21 9L23 9L23 7L24 7L24 6L23 6L23 5L21 5L21 4L22 4L22 3ZM17 5L17 6L16 6L16 7L15 7L15 8L16 8L16 7L17 7L17 6L18 6L18 7L19 7L19 8L20 8L20 9L21 9L21 8L22 8L22 7L23 7L23 6L22 6L22 7L21 7L21 6L20 6L20 7L19 7L19 6L18 6L18 5ZM15 9L15 10L14 10L14 11L15 11L15 10L16 10L16 9ZM31 9L31 10L32 10L32 9ZM3 10L3 11L4 11L4 10ZM6 12L6 13L7 13L7 14L6 14L6 15L5 15L5 13L4 13L4 15L5 15L5 17L4 17L4 20L5 20L5 18L6 18L6 19L8 19L8 18L9 18L9 16L8 16L8 15L7 15L7 14L8 14L8 13L7 13L7 12ZM12 13L12 14L13 14L13 15L14 15L14 18L15 18L15 17L16 17L16 18L17 18L17 17L16 17L16 16L17 16L17 15L14 15L14 14L13 14L13 13ZM31 13L31 14L32 14L32 13ZM6 15L6 16L7 16L7 15ZM26 16L26 17L27 17L27 16ZM6 17L6 18L7 18L7 17ZM13 19L13 20L15 20L15 21L16 21L16 20L17 20L17 19ZM25 19L25 20L24 20L24 21L25 21L25 20L26 20L26 19ZM31 19L31 20L30 20L30 21L31 21L31 22L30 22L30 23L31 23L31 22L32 22L32 21L31 21L31 20L32 20L32 19ZM6 20L6 21L8 21L8 20ZM18 21L18 22L19 22L19 21ZM29 24L29 25L30 25L30 27L31 27L31 26L32 26L32 25L31 25L31 24ZM25 25L25 28L28 28L28 25ZM26 26L26 27L27 27L27 26ZM14 27L14 28L15 28L15 27ZM20 28L20 29L21 29L21 28ZM20 31L20 32L21 32L21 31ZM29 31L29 32L30 32L30 33L32 33L32 32L30 32L30 31ZM0 0L0 7L7 7L7 0ZM1 1L1 6L6 6L6 1ZM2 2L2 5L5 5L5 2ZM26 0L26 7L33 7L33 0ZM27 1L27 6L32 6L32 1ZM28 2L28 5L31 5L31 2ZM0 26L0 33L7 33L7 26ZM1 27L1 32L6 32L6 27ZM2 28L2 31L5 31L5 28Z" fill="#000000"/></g></g></svg>
