<?xml version="1.0" encoding="UTF-8"?>
<svg xmlns="http://www.w3.org/2000/svg" version="1.1" width="300" height="300" viewBox="0 0 300 300"><rect x="0" y="0" width="300" height="300" fill="#ffffff"/><g transform="scale(9.677)"><g transform="translate(1,1)"><path fill-rule="evenodd" d="M8 0L8 2L9 2L9 0ZM14 0L14 1L15 1L15 0ZM16 0L16 1L17 1L17 3L15 3L15 2L14 2L14 3L15 3L15 4L13 4L13 3L11 3L11 4L10 4L10 3L8 3L8 7L9 7L9 8L10 8L10 9L7 9L7 8L6 8L6 9L7 9L7 10L5 10L5 9L4 9L4 8L3 8L3 10L0 10L0 12L1 12L1 13L2 13L2 12L3 12L3 10L4 10L4 11L5 11L5 13L7 13L7 12L8 12L8 13L10 13L10 14L8 14L8 15L7 15L7 14L6 14L6 15L7 15L7 16L6 16L6 17L4 17L4 16L3 16L3 15L4 15L4 13L3 13L3 14L2 14L2 16L1 16L1 15L0 15L0 16L1 16L1 17L2 17L2 19L3 19L3 20L2 20L2 21L3 21L3 20L4 20L4 21L5 21L5 20L6 20L6 21L7 21L7 20L8 20L8 22L9 22L9 20L11 20L11 23L10 23L10 25L8 25L8 26L9 26L9 27L10 27L10 28L9 28L9 29L10 29L10 28L11 28L11 29L16 29L16 28L14 28L14 27L16 27L16 26L19 26L19 28L18 28L18 29L19 29L19 28L20 28L20 29L23 29L23 28L24 28L24 29L26 29L26 27L25 27L25 26L26 26L26 24L27 24L27 25L28 25L28 27L27 27L27 29L28 29L28 27L29 27L29 25L28 25L28 22L29 22L29 21L27 21L27 20L29 20L29 16L28 16L28 15L29 15L29 14L28 14L28 13L27 13L27 16L28 16L28 17L25 17L25 19L24 19L24 17L22 17L22 16L25 16L25 15L24 15L24 13L23 13L23 9L26 9L26 10L27 10L27 11L26 11L26 12L25 12L25 14L26 14L26 12L28 12L28 10L29 10L29 8L27 8L27 9L26 9L26 8L23 8L23 9L21 9L21 11L20 11L20 10L19 10L19 11L20 11L20 13L18 13L18 14L17 14L17 12L16 12L16 13L15 13L15 12L14 12L14 11L16 11L16 10L17 10L17 11L18 11L18 10L17 10L17 9L19 9L19 8L20 8L20 7L21 7L21 6L20 6L20 5L19 5L19 3L21 3L21 0L19 0L19 1L20 1L20 2L19 2L19 3L18 3L18 1L17 1L17 0ZM10 1L10 2L13 2L13 1ZM17 3L17 4L15 4L15 5L14 5L14 6L13 6L13 4L12 4L12 5L11 5L11 7L10 7L10 5L9 5L9 7L10 7L10 8L11 8L11 9L12 9L12 10L11 10L11 11L8 11L8 10L7 10L7 11L6 11L6 12L7 12L7 11L8 11L8 12L11 12L11 15L8 15L8 19L11 19L11 18L14 18L14 19L15 19L15 20L14 20L14 21L16 21L16 22L17 22L17 23L15 23L15 22L14 22L14 23L15 23L15 25L14 25L14 24L13 24L13 23L11 23L11 24L12 24L12 25L10 25L10 26L12 26L12 27L13 27L13 26L12 26L12 25L14 25L14 26L15 26L15 25L16 25L16 24L17 24L17 25L19 25L19 26L21 26L21 28L22 28L22 27L23 27L23 26L24 26L24 25L23 25L23 26L22 26L22 25L20 25L20 22L19 22L19 24L18 24L18 21L17 21L17 20L18 20L18 17L19 17L19 19L20 19L20 20L24 20L24 19L23 19L23 18L22 18L22 19L21 19L21 16L22 16L22 15L23 15L23 13L22 13L22 11L21 11L21 13L22 13L22 15L21 15L21 16L20 16L20 14L19 14L19 15L17 15L17 16L16 16L16 18L14 18L14 16L15 16L15 15L16 15L16 14L15 14L15 13L14 13L14 12L13 12L13 11L12 11L12 10L16 10L16 9L15 9L15 8L14 8L14 6L15 6L15 7L16 7L16 6L17 6L17 7L18 7L18 3ZM12 6L12 7L11 7L11 8L12 8L12 7L13 7L13 6ZM19 6L19 7L20 7L20 6ZM27 9L27 10L28 10L28 9ZM11 11L11 12L12 12L12 11ZM12 13L12 14L13 14L13 16L14 16L14 14L13 14L13 13ZM11 15L11 17L12 17L12 15ZM9 16L9 18L10 18L10 16ZM17 16L17 17L18 17L18 16ZM6 17L6 18L3 18L3 19L4 19L4 20L5 20L5 19L6 19L6 20L7 20L7 19L6 19L6 18L7 18L7 17ZM0 18L0 19L1 19L1 18ZM16 18L16 19L17 19L17 18ZM26 18L26 20L27 20L27 18ZM0 20L0 21L1 21L1 20ZM12 20L12 22L13 22L13 20ZM21 21L21 24L24 24L24 21ZM25 21L25 22L27 22L27 21ZM22 22L22 23L23 23L23 22ZM25 23L25 24L26 24L26 23ZM24 27L24 28L25 28L25 27ZM0 0L0 7L7 7L7 0ZM1 1L1 6L6 6L6 1ZM2 2L2 5L5 5L5 2ZM22 0L22 7L29 7L29 0ZM23 1L23 6L28 6L28 1ZM24 2L24 5L27 5L27 2ZM0 22L0 29L7 29L7 22ZM1 23L1 28L6 28L6 23ZM2 24L2 27L5 27L5 24Z" fill="#000000"/></g></g></svg>
