<?xml version="1.0" encoding="UTF-8"?>
<svg xmlns="http://www.w3.org/2000/svg" version="1.1" width="300" height="300" viewBox="0 0 300 300"><rect x="0" y="0" width="300" height="300" fill="#ffffff"/><g transform="scale(8.571)"><g transform="translate(1,1)"><path fill-rule="evenodd" d="M10 0L10 1L11 1L11 2L10 2L10 3L9 3L9 4L8 4L8 5L10 5L10 7L9 7L9 6L8 6L8 8L6 8L6 9L8 9L8 10L9 10L9 11L7 11L7 10L6 10L6 11L5 11L5 10L4 10L4 11L3 11L3 13L1 13L1 12L2 12L2 10L3 10L3 9L4 9L4 8L2 8L2 10L1 10L1 9L0 9L0 11L1 11L1 12L0 12L0 13L1 13L1 14L0 14L0 15L1 15L1 16L2 16L2 17L0 17L0 19L2 19L2 20L0 20L0 22L3 22L3 23L5 23L5 22L3 22L3 21L2 21L2 20L3 20L3 19L2 19L2 18L3 18L3 17L4 17L4 21L7 21L7 20L8 20L8 22L6 22L6 23L8 23L8 22L10 22L10 20L12 20L12 22L13 22L13 24L12 24L12 23L11 23L11 24L10 24L10 23L9 23L9 24L10 24L10 25L8 25L8 27L9 27L9 29L8 29L8 31L9 31L9 29L10 29L10 31L11 31L11 30L12 30L12 26L13 26L13 24L15 24L15 23L16 23L16 24L17 24L17 25L18 25L18 26L17 26L17 28L16 28L16 29L15 29L15 31L16 31L16 29L17 29L17 28L19 28L19 29L20 29L20 32L19 32L19 31L18 31L18 30L17 30L17 31L18 31L18 32L15 32L15 33L18 33L18 32L19 32L19 33L21 33L21 31L22 31L22 32L23 32L23 31L24 31L24 32L25 32L25 33L29 33L29 32L30 32L30 31L31 31L31 28L32 28L32 29L33 29L33 28L32 28L32 25L33 25L33 20L32 20L32 19L31 19L31 18L33 18L33 17L32 17L32 16L31 16L31 13L30 13L30 12L29 12L29 11L30 11L30 10L29 10L29 11L27 11L27 8L25 8L25 10L26 10L26 11L25 11L25 12L24 12L24 9L23 9L23 10L21 10L21 9L22 9L22 8L24 8L24 7L25 7L25 5L24 5L24 3L25 3L25 0L23 0L23 1L21 1L21 0L20 0L20 2L19 2L19 1L17 1L17 0L15 0L15 1L14 1L14 0L12 0L12 1L11 1L11 0ZM12 1L12 2L11 2L11 3L10 3L10 5L11 5L11 3L12 3L12 5L16 5L16 4L18 4L18 3L19 3L19 4L20 4L20 6L19 6L19 7L18 7L18 5L17 5L17 7L18 7L18 8L19 8L19 7L20 7L20 8L22 8L22 6L23 6L23 7L24 7L24 5L22 5L22 6L21 6L21 4L23 4L23 3L22 3L22 2L21 2L21 4L20 4L20 3L19 3L19 2L17 2L17 3L15 3L15 2L16 2L16 1L15 1L15 2L13 2L13 1ZM13 3L13 4L14 4L14 3ZM11 6L11 8L9 8L9 9L10 9L10 11L9 11L9 12L7 12L7 11L6 11L6 12L5 12L5 11L4 11L4 12L5 12L5 14L4 14L4 13L3 13L3 14L4 14L4 15L2 15L2 14L1 14L1 15L2 15L2 16L4 16L4 17L5 17L5 19L6 19L6 20L7 20L7 19L8 19L8 20L9 20L9 19L11 19L11 18L9 18L9 16L7 16L7 15L9 15L9 14L10 14L10 16L13 16L13 15L12 15L12 14L13 14L13 13L12 13L12 12L14 12L14 13L15 13L15 14L14 14L14 15L15 15L15 14L16 14L16 16L15 16L15 17L12 17L12 18L16 18L16 20L15 20L15 19L14 19L14 21L13 21L13 22L14 22L14 21L16 21L16 23L17 23L17 22L18 22L18 23L19 23L19 22L20 22L20 21L21 21L21 22L22 22L22 21L21 21L21 20L22 20L22 19L23 19L23 20L24 20L24 21L23 21L23 23L21 23L21 24L20 24L20 26L19 26L19 27L20 27L20 26L21 26L21 27L22 27L22 26L23 26L23 25L22 25L22 24L23 24L23 23L26 23L26 24L27 24L27 23L28 23L28 24L29 24L29 25L30 25L30 26L29 26L29 29L28 29L28 30L27 30L27 29L26 29L26 30L27 30L27 31L26 31L26 32L29 32L29 31L30 31L30 27L31 27L31 25L32 25L32 24L31 24L31 23L32 23L32 22L31 22L31 23L30 23L30 22L29 22L29 20L31 20L31 19L30 19L30 15L29 15L29 14L30 14L30 13L29 13L29 12L28 12L28 13L29 13L29 14L27 14L27 11L26 11L26 12L25 12L25 13L24 13L24 12L23 12L23 13L22 13L22 15L23 15L23 16L22 16L22 17L21 17L21 15L20 15L20 17L21 17L21 18L22 18L22 19L21 19L21 20L20 20L20 21L19 21L19 20L18 20L18 19L19 19L19 18L18 18L18 16L19 16L19 15L18 15L18 16L17 16L17 14L18 14L18 13L21 13L21 12L20 12L20 11L21 11L21 10L20 10L20 9L19 9L19 10L20 10L20 11L16 11L16 10L17 10L17 8L14 8L14 11L13 11L13 10L12 10L12 12L11 12L11 9L12 9L12 6ZM13 6L13 7L14 7L14 6ZM15 6L15 7L16 7L16 6ZM20 6L20 7L21 7L21 6ZM28 8L28 9L29 9L29 8ZM15 9L15 10L16 10L16 9ZM31 9L31 10L32 10L32 11L31 11L31 12L33 12L33 9ZM14 11L14 12L15 12L15 11ZM6 12L6 13L7 13L7 14L5 14L5 15L4 15L4 16L6 16L6 17L7 17L7 18L6 18L6 19L7 19L7 18L8 18L8 17L7 17L7 16L6 16L6 15L7 15L7 14L8 14L8 13L7 13L7 12ZM17 12L17 13L16 13L16 14L17 14L17 13L18 13L18 12ZM10 13L10 14L12 14L12 13ZM25 14L25 15L24 15L24 16L23 16L23 18L24 18L24 19L25 19L25 22L26 22L26 23L27 23L27 22L28 22L28 23L29 23L29 22L28 22L28 20L27 20L27 19L28 19L28 18L29 18L29 15L28 15L28 16L26 16L26 17L25 17L25 18L24 18L24 16L25 16L25 15L26 15L26 14ZM16 16L16 17L17 17L17 16ZM27 17L27 18L25 18L25 19L27 19L27 18L28 18L28 17ZM17 18L17 19L18 19L18 18ZM12 19L12 20L13 20L13 19ZM16 20L16 21L18 21L18 22L19 22L19 21L18 21L18 20ZM26 20L26 22L27 22L27 20ZM1 23L1 24L0 24L0 25L1 25L1 24L2 24L2 25L3 25L3 24L2 24L2 23ZM6 24L6 25L7 25L7 24ZM18 24L18 25L19 25L19 24ZM10 25L10 27L11 27L11 26L12 26L12 25ZM14 25L14 27L13 27L13 28L14 28L14 27L16 27L16 26L15 26L15 25ZM25 25L25 28L28 28L28 25ZM26 26L26 27L27 27L27 26ZM10 28L10 29L11 29L11 28ZM20 28L20 29L21 29L21 30L22 30L22 31L23 31L23 28ZM13 30L13 33L14 33L14 30ZM24 30L24 31L25 31L25 30ZM32 31L32 32L33 32L33 31ZM0 0L0 7L7 7L7 0ZM1 1L1 6L6 6L6 1ZM2 2L2 5L5 5L5 2ZM26 0L26 7L33 7L33 0ZM27 1L27 6L32 6L32 1ZM28 2L28 5L31 5L31 2ZM0 26L0 33L7 33L7 26ZM1 27L1 32L6 32L6 27ZM2 28L2 31L5 31L5 28Z" fill="#000000"/></g></g></svg>
