<?xml version="1.0" encoding="UTF-8"?>
<svg xmlns="http://www.w3.org/2000/svg" version="1.1" width="300" height="300" viewBox="0 0 300 300"><rect x="0" y="0" width="300" height="300" fill="#ffffff"/><g transform="scale(8.571)"><g transform="translate(1,1)"><path fill-rule="evenodd" d="M8 0L8 3L9 3L9 2L10 2L10 4L9 4L9 5L8 5L8 9L7 9L7 8L6 8L6 9L7 9L7 10L5 10L5 8L2 8L2 9L1 9L1 10L0 10L0 13L1 13L1 14L2 14L2 15L3 15L3 11L4 11L4 10L5 10L5 12L6 12L6 13L7 13L7 14L5 14L5 13L4 13L4 16L5 16L5 17L4 17L4 19L3 19L3 16L0 16L0 18L1 18L1 21L0 21L0 25L1 25L1 21L2 21L2 23L3 23L3 24L4 24L4 25L5 25L5 22L6 22L6 23L7 23L7 24L6 24L6 25L7 25L7 24L9 24L9 25L8 25L8 26L10 26L10 24L9 24L9 23L10 23L10 21L9 21L9 23L7 23L7 22L6 22L6 21L8 21L8 20L6 20L6 21L4 21L4 22L3 22L3 20L5 20L5 18L6 18L6 19L8 19L8 18L9 18L9 20L11 20L11 22L12 22L12 23L13 23L13 24L14 24L14 26L13 26L13 25L12 25L12 26L11 26L11 27L9 27L9 28L8 28L8 31L9 31L9 33L10 33L10 31L11 31L11 32L12 32L12 31L11 31L11 30L10 30L10 29L12 29L12 26L13 26L13 29L15 29L15 30L13 30L13 33L14 33L14 31L15 31L15 32L16 32L16 33L17 33L17 32L16 32L16 31L15 31L15 30L16 30L16 29L15 29L15 28L17 28L17 27L16 27L16 26L17 26L17 25L16 25L16 24L15 24L15 21L16 21L16 20L17 20L17 19L18 19L18 20L19 20L19 21L17 21L17 22L16 22L16 23L17 23L17 22L19 22L19 21L20 21L20 23L19 23L19 24L20 24L20 25L18 25L18 27L19 27L19 28L21 28L21 29L19 29L19 30L18 30L18 29L17 29L17 30L18 30L18 33L19 33L19 32L20 32L20 33L25 33L25 32L23 32L23 31L21 31L21 29L23 29L23 30L24 30L24 31L26 31L26 32L28 32L28 31L27 31L27 30L24 30L24 29L28 29L28 30L30 30L30 29L29 29L29 28L31 28L31 30L32 30L32 29L33 29L33 28L31 28L31 27L32 27L32 26L33 26L33 23L32 23L32 22L33 22L33 18L30 18L30 19L29 19L29 18L28 18L28 20L27 20L27 17L31 17L31 16L32 16L32 17L33 17L33 16L32 16L32 14L33 14L33 11L32 11L32 10L33 10L33 8L30 8L30 10L31 10L31 11L29 11L29 12L31 12L31 13L30 13L30 14L29 14L29 15L30 15L30 16L28 16L28 15L27 15L27 14L28 14L28 13L26 13L26 12L25 12L25 13L26 13L26 15L25 15L25 16L24 16L24 15L23 15L23 14L24 14L24 11L22 11L22 10L25 10L25 11L28 11L28 10L27 10L27 9L28 9L28 8L25 8L25 9L24 9L24 7L25 7L25 5L23 5L23 4L25 4L25 3L24 3L24 2L21 2L21 1L22 1L22 0L21 0L21 1L19 1L19 2L20 2L20 3L17 3L17 4L16 4L16 2L15 2L15 1L18 1L18 0L15 0L15 1L13 1L13 0L12 0L12 2L10 2L10 1L9 1L9 0ZM23 0L23 1L25 1L25 0ZM12 2L12 3L11 3L11 4L10 4L10 5L9 5L9 12L7 12L7 11L8 11L8 10L7 10L7 11L6 11L6 12L7 12L7 13L8 13L8 14L7 14L7 15L6 15L6 16L7 16L7 15L8 15L8 16L9 16L9 18L10 18L10 17L13 17L13 19L12 19L12 18L11 18L11 19L12 19L12 21L15 21L15 20L13 20L13 19L17 19L17 18L18 18L18 17L17 17L17 16L19 16L19 13L17 13L17 14L15 14L15 12L18 12L18 10L20 10L20 8L19 8L19 9L18 9L18 10L16 10L16 8L18 8L18 6L19 6L19 7L20 7L20 6L21 6L21 7L22 7L22 6L23 6L23 7L24 7L24 6L23 6L23 5L22 5L22 6L21 6L21 4L22 4L22 3L20 3L20 4L19 4L19 5L18 5L18 4L17 4L17 5L16 5L16 4L15 4L15 2L14 2L14 4L12 4L12 3L13 3L13 2ZM11 5L11 6L10 6L10 7L11 7L11 6L12 6L12 7L13 7L13 8L14 8L14 9L15 9L15 8L16 8L16 7L17 7L17 6L18 6L18 5L17 5L17 6L16 6L16 5L14 5L14 7L13 7L13 6L12 6L12 5ZM15 6L15 7L14 7L14 8L15 8L15 7L16 7L16 6ZM10 8L10 11L13 11L13 10L11 10L11 9L12 9L12 8ZM21 8L21 9L23 9L23 8ZM3 9L3 10L2 10L2 11L3 11L3 10L4 10L4 9ZM31 9L31 10L32 10L32 9ZM14 10L14 11L15 11L15 10ZM19 11L19 12L20 12L20 13L21 13L21 14L20 14L20 17L19 17L19 18L20 18L20 17L22 17L22 18L23 18L23 19L22 19L22 20L21 20L21 19L20 19L20 21L21 21L21 22L22 22L22 25L21 25L21 28L23 28L23 29L24 29L24 27L22 27L22 26L24 26L24 23L25 23L25 24L27 24L27 23L28 23L28 24L29 24L29 25L30 25L30 27L31 27L31 26L32 26L32 25L31 25L31 24L29 24L29 22L30 22L30 23L31 23L31 22L32 22L32 21L31 21L31 20L32 20L32 19L31 19L31 20L30 20L30 21L25 21L25 20L26 20L26 19L25 19L25 20L24 20L24 21L23 21L23 19L24 19L24 18L23 18L23 17L22 17L22 16L21 16L21 15L22 15L22 13L23 13L23 12L22 12L22 13L21 13L21 12L20 12L20 11ZM9 12L9 14L8 14L8 15L9 15L9 16L11 16L11 15L10 15L10 14L11 14L11 13L12 13L12 14L13 14L13 15L14 15L14 18L15 18L15 17L16 17L16 18L17 18L17 17L16 17L16 16L17 16L17 15L14 15L14 14L13 14L13 13L12 13L12 12ZM31 13L31 14L32 14L32 13ZM26 16L26 17L27 17L27 16ZM1 17L1 18L2 18L2 17ZM6 17L6 18L7 18L7 17ZM24 21L24 22L25 22L25 21ZM30 21L30 22L31 22L31 21ZM25 25L25 28L28 28L28 25ZM19 26L19 27L20 27L20 26ZM26 26L26 27L27 27L27 26ZM14 27L14 28L15 28L15 27ZM20 31L20 32L21 32L21 31ZM29 31L29 32L30 32L30 33L32 33L32 32L30 32L30 31ZM0 0L0 7L7 7L7 0ZM1 1L1 6L6 6L6 1ZM2 2L2 5L5 5L5 2ZM26 0L26 7L33 7L33 0ZM27 1L27 6L32 6L32 1ZM28 2L28 5L31 5L31 2ZM0 26L0 33L7 33L7 26ZM1 27L1 32L6 32L6 27ZM2 28L2 31L5 31L5 28Z" fill="#000000"/></g></g></svg>
