<?xml version="1.0" encoding="UTF-8"?>
<svg xmlns="http://www.w3.org/2000/svg" version="1.1" width="300" height="300" viewBox="0 0 300 300"><rect x="0" y="0" width="300" height="300" fill="#ffffff"/><g transform="scale(9.677)"><g transform="translate(1,1)"><path fill-rule="evenodd" d="M8 0L8 3L9 3L9 5L8 5L8 10L5 10L5 8L2 8L2 9L0 9L0 11L1 11L1 10L2 10L2 11L3 11L3 14L2 14L2 15L1 15L1 16L3 16L3 17L0 17L0 21L1 21L1 18L2 18L2 19L4 19L4 20L2 20L2 21L4 21L4 20L5 20L5 21L7 21L7 20L5 20L5 17L4 17L4 16L3 16L3 14L4 14L4 15L5 15L5 16L6 16L6 17L7 17L7 16L6 16L6 15L7 15L7 14L6 14L6 13L8 13L8 12L9 12L9 10L10 10L10 11L11 11L11 12L13 12L13 11L12 11L12 10L16 10L16 11L18 11L18 12L20 12L20 11L21 11L21 10L22 10L22 12L21 12L21 13L19 13L19 14L20 14L20 15L19 15L19 18L18 18L18 19L15 19L15 18L17 18L17 17L18 17L18 16L17 16L17 15L16 15L16 13L15 13L15 16L13 16L13 15L14 15L14 13L13 13L13 15L12 15L12 13L11 13L11 15L10 15L10 16L8 16L8 17L9 17L9 18L8 18L8 19L9 19L9 20L8 20L8 22L9 22L9 24L8 24L8 27L9 27L9 26L11 26L11 27L10 27L10 28L11 28L11 29L13 29L13 27L16 27L16 28L15 28L15 29L16 29L16 28L18 28L18 29L20 29L20 28L21 28L21 27L22 27L22 29L23 29L23 26L24 26L24 29L25 29L25 26L26 26L26 25L27 25L27 24L28 24L28 25L29 25L29 24L28 24L28 23L27 23L27 24L26 24L26 23L25 23L25 22L26 22L26 21L27 21L27 22L29 22L29 20L28 20L28 19L27 19L27 18L29 18L29 16L28 16L28 15L27 15L27 16L26 16L26 15L25 15L25 17L21 17L21 14L22 14L22 16L23 16L23 13L22 13L22 12L23 12L23 10L25 10L25 11L24 11L24 12L25 12L25 13L24 13L24 14L26 14L26 13L27 13L27 14L29 14L29 12L28 12L28 11L27 11L27 9L28 9L28 10L29 10L29 8L26 8L26 9L24 9L24 8L21 8L21 10L20 10L20 9L19 9L19 8L20 8L20 7L21 7L21 4L20 4L20 3L21 3L21 1L20 1L20 0L19 0L19 1L18 1L18 2L19 2L19 4L18 4L18 3L16 3L16 2L17 2L17 1L16 1L16 0L15 0L15 1L16 1L16 2L14 2L14 3L13 3L13 5L12 5L12 4L10 4L10 3L11 3L11 2L9 2L9 1L10 1L10 0ZM12 0L12 2L13 2L13 0ZM19 1L19 2L20 2L20 1ZM14 3L14 5L13 5L13 8L12 8L12 5L10 5L10 6L9 6L9 7L10 7L10 6L11 6L11 8L10 8L10 9L11 9L11 8L12 8L12 9L16 9L16 10L17 10L17 9L18 9L18 8L19 8L19 7L20 7L20 5L19 5L19 7L18 7L18 5L17 5L17 4L16 4L16 5L15 5L15 3ZM14 6L14 8L16 8L16 9L17 9L17 8L16 8L16 7L17 7L17 6L16 6L16 7L15 7L15 6ZM6 8L6 9L7 9L7 8ZM2 9L2 10L3 10L3 9ZM18 10L18 11L20 11L20 10ZM4 11L4 12L5 12L5 11ZM6 11L6 12L8 12L8 11ZM14 11L14 12L15 12L15 11ZM26 11L26 12L27 12L27 11ZM1 12L1 13L2 13L2 12ZM17 13L17 14L18 14L18 13ZM5 14L5 15L6 15L6 14ZM8 14L8 15L9 15L9 14ZM11 15L11 16L12 16L12 15ZM15 16L15 17L14 17L14 18L15 18L15 17L16 17L16 16ZM3 17L3 18L4 18L4 17ZM11 17L11 18L12 18L12 19L13 19L13 17ZM25 17L25 18L24 18L24 20L25 20L25 18L27 18L27 17ZM6 18L6 19L7 19L7 18ZM19 18L19 19L18 19L18 20L17 20L17 21L16 21L16 22L15 22L15 23L14 23L14 24L13 24L13 25L11 25L11 26L12 26L12 27L13 27L13 25L14 25L14 24L17 24L17 25L16 25L16 26L18 26L18 27L19 27L19 28L20 28L20 27L19 27L19 26L23 26L23 25L20 25L20 24L18 24L18 23L19 23L19 22L20 22L20 21L18 21L18 20L19 20L19 19L20 19L20 20L22 20L22 18L21 18L21 19L20 19L20 18ZM10 19L10 20L11 20L11 19ZM26 19L26 20L27 20L27 19ZM12 20L12 21L10 21L10 22L12 22L12 21L13 21L13 20ZM14 20L14 21L15 21L15 20ZM17 21L17 22L16 22L16 23L18 23L18 21ZM21 21L21 24L24 24L24 21ZM22 22L22 23L23 23L23 22ZM11 23L11 24L12 24L12 23ZM9 24L9 25L10 25L10 24ZM24 25L24 26L25 26L25 25ZM27 26L27 28L26 28L26 29L27 29L27 28L28 28L28 26ZM0 0L0 7L7 7L7 0ZM1 1L1 6L6 6L6 1ZM2 2L2 5L5 5L5 2ZM22 0L22 7L29 7L29 0ZM23 1L23 6L28 6L28 1ZM24 2L24 5L27 5L27 2ZM0 22L0 29L7 29L7 22ZM1 23L1 28L6 28L6 23ZM2 24L2 27L5 27L5 24Z" fill="#000000"/></g></g></svg>
