<?xml version="1.0" encoding="UTF-8"?>
<svg xmlns="http://www.w3.org/2000/svg" version="1.1" width="300" height="300" viewBox="0 0 300 300"><rect x="0" y="0" width="300" height="300" fill="#ffffff"/><g transform="scale(8.571)"><g transform="translate(1,1)"><path fill-rule="evenodd" d="M8 0L8 1L9 1L9 2L10 2L10 3L8 3L8 4L9 4L9 6L8 6L8 7L9 7L9 6L10 6L10 8L11 8L11 9L12 9L12 8L11 8L11 6L10 6L10 5L13 5L13 6L12 6L12 7L13 7L13 6L14 6L14 7L15 7L15 8L14 8L14 9L15 9L15 10L16 10L16 9L15 9L15 8L17 8L17 9L18 9L18 7L19 7L19 6L20 6L20 8L21 8L21 9L19 9L19 11L20 11L20 13L21 13L21 11L22 11L22 10L21 10L21 9L22 9L22 8L24 8L24 11L25 11L25 12L24 12L24 13L25 13L25 14L24 14L24 15L22 15L22 14L21 14L21 17L20 17L20 16L19 16L19 15L18 15L18 14L19 14L19 12L18 12L18 10L17 10L17 11L14 11L14 10L12 10L12 11L13 11L13 12L12 12L12 13L11 13L11 11L10 11L10 13L9 13L9 17L10 17L10 13L11 13L11 14L12 14L12 13L14 13L14 16L13 16L13 15L11 15L11 16L13 16L13 17L15 17L15 18L16 18L16 19L18 19L18 20L16 20L16 21L15 21L15 19L14 19L14 18L8 18L8 16L5 16L5 15L7 15L7 14L5 14L5 13L4 13L4 12L5 12L5 11L7 11L7 12L6 12L6 13L7 13L7 12L9 12L9 11L7 11L7 10L10 10L10 9L9 9L9 8L8 8L8 9L7 9L7 8L4 8L4 9L5 9L5 11L4 11L4 12L2 12L2 10L3 10L3 8L2 8L2 9L1 9L1 12L0 12L0 13L1 13L1 12L2 12L2 13L4 13L4 14L5 14L5 15L4 15L4 16L2 16L2 17L1 17L1 15L3 15L3 14L1 14L1 15L0 15L0 17L1 17L1 18L0 18L0 19L1 19L1 20L2 20L2 21L1 21L1 22L0 22L0 23L1 23L1 24L0 24L0 25L1 25L1 24L2 24L2 23L1 23L1 22L3 22L3 25L5 25L5 24L6 24L6 25L7 25L7 24L6 24L6 23L8 23L8 22L10 22L10 24L8 24L8 26L10 26L10 24L11 24L11 25L12 25L12 26L11 26L11 27L12 27L12 29L15 29L15 27L16 27L16 25L17 25L17 26L18 26L18 27L20 27L20 28L17 28L17 29L16 29L16 31L15 31L15 30L13 30L13 31L14 31L14 33L19 33L19 32L20 32L20 31L18 31L18 29L20 29L20 30L22 30L22 31L21 31L21 32L23 32L23 31L24 31L24 33L25 33L25 31L26 31L26 32L27 32L27 33L29 33L29 32L30 32L30 33L33 33L33 32L32 32L32 31L33 31L33 30L32 30L32 31L31 31L31 32L30 32L30 31L29 31L29 30L30 30L30 27L31 27L31 26L30 26L30 25L29 25L29 24L30 24L30 22L29 22L29 23L28 23L28 24L26 24L26 23L27 23L27 22L28 22L28 19L29 19L29 18L30 18L30 19L31 19L31 18L32 18L32 20L33 20L33 17L32 17L32 15L33 15L33 8L32 8L32 11L31 11L31 9L30 9L30 8L29 8L29 10L28 10L28 11L29 11L29 12L28 12L28 14L29 14L29 15L28 15L28 16L26 16L26 15L27 15L27 12L26 12L26 11L27 11L27 9L26 9L26 8L24 8L24 7L25 7L25 3L24 3L24 2L25 2L25 0L21 0L21 1L22 1L22 3L24 3L24 5L22 5L22 4L21 4L21 3L19 3L19 2L20 2L20 1L15 1L15 0L12 0L12 1L11 1L11 2L10 2L10 0ZM12 1L12 2L11 2L11 3L10 3L10 4L13 4L13 5L16 5L16 6L15 6L15 7L16 7L16 6L17 6L17 7L18 7L18 6L17 6L17 5L21 5L21 7L22 7L22 5L21 5L21 4L19 4L19 3L18 3L18 2L17 2L17 3L12 3L12 2L15 2L15 1ZM17 3L17 4L16 4L16 5L17 5L17 4L18 4L18 3ZM23 6L23 7L24 7L24 6ZM6 9L6 10L7 10L7 9ZM25 9L25 11L26 11L26 9ZM20 10L20 11L21 11L21 10ZM29 10L29 11L30 11L30 13L29 13L29 14L30 14L30 17L31 17L31 14L30 14L30 13L32 13L32 12L31 12L31 11L30 11L30 10ZM14 12L14 13L15 13L15 12ZM25 12L25 13L26 13L26 12ZM17 13L17 14L16 14L16 16L15 16L15 17L17 17L17 16L18 16L18 17L19 17L19 16L18 16L18 15L17 15L17 14L18 14L18 13ZM25 14L25 15L24 15L24 16L23 16L23 20L25 20L25 23L26 23L26 22L27 22L27 21L26 21L26 20L27 20L27 19L28 19L28 18L29 18L29 16L28 16L28 18L27 18L27 19L26 19L26 18L25 18L25 17L26 17L26 16L25 16L25 15L26 15L26 14ZM24 16L24 17L25 17L25 16ZM4 17L4 20L3 20L3 19L2 19L2 18L1 18L1 19L2 19L2 20L3 20L3 22L4 22L4 23L5 23L5 22L7 22L7 21L6 21L6 20L8 20L8 21L9 21L9 20L10 20L10 22L11 22L11 24L13 24L13 25L14 25L14 26L13 26L13 28L14 28L14 27L15 27L15 25L14 25L14 24L13 24L13 21L14 21L14 19L12 19L12 20L10 20L10 19L9 19L9 20L8 20L8 18L7 18L7 17L6 17L6 18L7 18L7 19L6 19L6 20L5 20L5 17ZM18 18L18 19L19 19L19 21L18 21L18 22L16 22L16 23L15 23L15 24L16 24L16 23L17 23L17 24L18 24L18 25L19 25L19 26L20 26L20 27L22 27L22 26L23 26L23 24L24 24L24 23L23 23L23 22L22 22L22 21L20 21L20 20L21 20L21 19L22 19L22 18L20 18L20 19L19 19L19 18ZM24 18L24 19L25 19L25 18ZM12 20L12 21L11 21L11 22L12 22L12 21L13 21L13 20ZM29 20L29 21L30 21L30 20ZM32 21L32 23L31 23L31 24L33 24L33 21ZM18 22L18 24L19 24L19 25L20 25L20 26L22 26L22 24L23 24L23 23L22 23L22 22ZM20 23L20 24L21 24L21 23ZM25 25L25 28L28 28L28 25ZM32 25L32 27L33 27L33 25ZM26 26L26 27L27 27L27 26ZM29 26L29 27L30 27L30 26ZM8 27L8 29L9 29L9 30L8 30L8 31L9 31L9 32L10 32L10 28L9 28L9 27ZM23 27L23 30L24 30L24 31L25 31L25 30L24 30L24 27ZM20 28L20 29L22 29L22 28ZM32 28L32 29L33 29L33 28ZM26 29L26 31L27 31L27 30L28 30L28 29ZM16 31L16 32L18 32L18 31ZM28 31L28 32L29 32L29 31ZM12 32L12 33L13 33L13 32ZM0 0L0 7L7 7L7 0ZM1 1L1 6L6 6L6 1ZM2 2L2 5L5 5L5 2ZM26 0L26 7L33 7L33 0ZM27 1L27 6L32 6L32 1ZM28 2L28 5L31 5L31 2ZM0 26L0 33L7 33L7 26ZM1 27L1 32L6 32L6 27ZM2 28L2 31L5 31L5 28Z" fill="#000000"/></g></g></svg>
