<svg width="900" height="720" viewBox="0 0 900 720" fill="none" xmlns="http://www.w3.org/2000/svg">
  <rect width="900" height="720" rx="36" fill="#173126"/>
  <g opacity="0.9">
    <circle cx="721" cy="130" r="96" fill="#D8B36A"/>
    <circle cx="155" cy="104" r="46" fill="#325E47"/>
    <circle cx="825" cy="595" r="74" fill="#244936"/>
  </g>
  <rect x="72" y="164" width="756" height="20" rx="10" fill="#D9E7DD" fill-opacity="0.14"/>
  <rect x="72" y="330" width="756" height="20" rx="10" fill="#D9E7DD" fill-opacity="0.14"/>
  <rect x="72" y="496" width="756" height="20" rx="10" fill="#D9E7DD" fill-opacity="0.14"/>

  <g>
    <rect x="120" y="64" width="42" height="100" rx="10" fill="#6EB38B"/>
    <rect x="168" y="90" width="28" height="74" rx="8" fill="#F3D79B"/>
    <rect x="204" y="78" width="36" height="86" rx="8" fill="#315F48"/>
    <rect x="248" y="96" width="58" height="68" rx="8" fill="#E5F0E8"/>
    <rect x="313" y="68" width="30" height="96" rx="8" fill="#87C6A2"/>
  </g>

  <g>
    <rect x="122" y="234" width="34" height="96" rx="8" fill="#F3D79B"/>
    <rect x="163" y="246" width="56" height="84" rx="8" fill="#6EB38B"/>
    <rect x="226" y="218" width="28" height="112" rx="8" fill="#2B503D"/>
    <rect x="262" y="250" width="34" height="80" rx="8" fill="#D9E7DD"/>
    <rect x="304" y="228" width="76" height="102" rx="12" fill="#4B8B3B"/>
    <path d="M327 248C338 232 359 225 379 230V330H327V248Z" fill="#D8B36A"/>
  </g>

  <g>
    <rect x="124" y="418" width="28" height="78" rx="8" fill="#D9E7DD"/>
    <rect x="160" y="390" width="64" height="106" rx="10" fill="#6EB38B"/>
    <rect x="231" y="414" width="34" height="82" rx="8" fill="#F3D79B"/>
    <rect x="273" y="404" width="30" height="92" rx="8" fill="#2B503D"/>
    <rect x="311" y="384" width="96" height="112" rx="14" fill="#E8F2E2"/>
    <path d="M340 409C355 389 381 380 407 386V496H340V409Z" fill="#325E47"/>
  </g>

  <g opacity="0.95">
    <rect x="488" y="214" width="268" height="256" rx="28" fill="#F7F4EA"/>
    <rect x="516" y="246" width="82" height="12" rx="6" fill="#4B8B3B"/>
    <rect x="516" y="278" width="176" height="18" rx="9" fill="#173126"/>
    <rect x="516" y="306" width="196" height="12" rx="6" fill="#8A9B92"/>
    <rect x="516" y="350" width="212" height="54" rx="18" fill="#E6EFE7"/>
    <rect x="516" y="420" width="212" height="54" rx="18" fill="#173126"/>
    <rect x="548" y="366" width="64" height="8" rx="4" fill="#B7C6BC"/>
    <rect x="548" y="438" width="88" height="8" rx="4" fill="#D9E7DD"/>
    <circle cx="694" cy="157" r="46" fill="#E8F0D4"/>
    <path d="M676 140H712V174H676V140Z" fill="#4B8B3B"/>
    <path d="M682 134C682 125.163 689.163 118 698 118H730V152H698C689.163 152 682 144.837 682 136V134Z" fill="#D8B36A"/>
    <path d="M658 134C658 125.163 650.837 118 642 118H610V152H642C650.837 152 658 144.837 658 136V134Z" fill="#315F48"/>
  </g>

  <g opacity="0.28">
    <path d="M455 580C537 520 626 524 702 578" stroke="#D9E7DD" stroke-width="10" stroke-linecap="round"/>
    <path d="M490 622C554 578 626 580 682 621" stroke="#D9E7DD" stroke-width="10" stroke-linecap="round"/>
  </g>
</svg>
