<?xml version="1.0" encoding="UTF-8"?>
<svg xmlns="http://www.w3.org/2000/svg" version="1.1" width="300" height="300" viewBox="0 0 300 300"><rect x="0" y="0" width="300" height="300" fill="#ffffff"/><g transform="scale(8.571)"><g transform="translate(1,1)"><path fill-rule="evenodd" d="M8 0L8 3L9 3L9 4L10 4L10 1L11 1L11 6L10 6L10 5L8 5L8 10L9 10L9 9L11 9L11 10L10 10L10 11L9 11L9 13L7 13L7 12L8 12L8 11L7 11L7 10L4 10L4 9L5 9L5 8L2 8L2 9L0 9L0 10L1 10L1 11L0 11L0 14L1 14L1 16L0 16L0 19L1 19L1 20L0 20L0 25L1 25L1 22L2 22L2 23L3 23L3 24L2 24L2 25L4 25L4 24L5 24L5 25L7 25L7 24L8 24L8 26L9 26L9 27L10 27L10 28L8 28L8 31L9 31L9 32L10 32L10 31L11 31L11 32L12 32L12 33L13 33L13 31L11 31L11 30L14 30L14 31L15 31L15 32L14 32L14 33L15 33L15 32L16 32L16 33L17 33L17 32L16 32L16 30L18 30L18 28L19 28L19 30L20 30L20 31L21 31L21 32L20 32L20 33L21 33L21 32L22 32L22 31L21 31L21 30L23 30L23 32L24 32L24 33L25 33L25 32L26 32L26 33L27 33L27 32L28 32L28 31L27 31L27 30L25 30L25 32L24 32L24 29L28 29L28 30L29 30L29 31L30 31L30 32L29 32L29 33L30 33L30 32L31 32L31 33L32 33L32 32L31 32L31 31L30 31L30 28L32 28L32 27L31 27L31 26L33 26L33 23L32 23L32 25L30 25L30 28L29 28L29 23L30 23L30 24L31 24L31 23L30 23L30 22L33 22L33 19L32 19L32 18L33 18L33 15L32 15L32 14L33 14L33 13L32 13L32 14L31 14L31 13L30 13L30 12L31 12L31 10L33 10L33 8L30 8L30 9L31 9L31 10L30 10L30 12L28 12L28 13L26 13L26 14L28 14L28 13L30 13L30 14L29 14L29 15L30 15L30 16L31 16L31 18L30 18L30 19L29 19L29 20L28 20L28 17L29 17L29 16L28 16L28 15L27 15L27 16L28 16L28 17L26 17L26 18L27 18L27 19L26 19L26 20L28 20L28 21L27 21L27 23L28 23L28 24L24 24L24 23L25 23L25 22L23 22L23 21L25 21L25 10L27 10L27 11L28 11L28 10L27 10L27 9L28 9L28 8L25 8L25 6L24 6L24 9L23 9L23 4L24 4L24 5L25 5L25 4L24 4L24 2L23 2L23 1L25 1L25 0L23 0L23 1L22 1L22 2L20 2L20 1L21 1L21 0L20 0L20 1L19 1L19 2L18 2L18 4L19 4L19 5L21 5L21 4L20 4L20 3L22 3L22 2L23 2L23 4L22 4L22 7L21 7L21 6L20 6L20 7L19 7L19 6L18 6L18 8L16 8L16 7L17 7L17 3L15 3L15 4L14 4L14 1L15 1L15 2L17 2L17 1L15 1L15 0L12 0L12 1L11 1L11 0L10 0L10 1L9 1L9 0ZM12 1L12 2L13 2L13 1ZM19 2L19 3L20 3L20 2ZM12 3L12 4L13 4L13 7L14 7L14 8L12 8L12 6L11 6L11 9L13 9L13 10L15 10L15 7L16 7L16 4L15 4L15 7L14 7L14 4L13 4L13 3ZM9 6L9 8L10 8L10 6ZM20 7L20 8L21 8L21 12L19 12L19 13L18 13L18 12L14 12L14 11L13 11L13 13L14 13L14 14L12 14L12 12L11 12L11 11L12 11L12 10L11 10L11 11L10 11L10 12L11 12L11 14L9 14L9 15L8 15L8 14L7 14L7 13L6 13L6 12L7 12L7 11L6 11L6 12L5 12L5 13L6 13L6 14L7 14L7 15L6 15L6 16L7 16L7 17L5 17L5 16L4 16L4 14L3 14L3 15L2 15L2 16L1 16L1 19L2 19L2 20L1 20L1 21L3 21L3 23L5 23L5 24L7 24L7 23L6 23L6 22L8 22L8 21L6 21L6 20L7 20L7 19L9 19L9 21L10 21L10 23L8 23L8 24L9 24L9 26L10 26L10 27L11 27L11 25L10 25L10 23L12 23L12 24L13 24L13 25L12 25L12 26L13 26L13 27L12 27L12 28L10 28L10 29L12 29L12 28L14 28L14 27L15 27L15 28L17 28L17 27L19 27L19 25L22 25L22 27L23 27L23 26L24 26L24 25L22 25L22 24L21 24L21 23L22 23L22 21L23 21L23 20L21 20L21 18L18 18L18 16L19 16L19 15L20 15L20 17L24 17L24 14L23 14L23 13L24 13L24 12L23 12L23 11L24 11L24 10L25 10L25 9L24 9L24 10L23 10L23 9L22 9L22 8L21 8L21 7ZM6 8L6 9L7 9L7 8ZM18 8L18 9L16 9L16 10L17 10L17 11L18 11L18 9L19 9L19 10L20 10L20 9L19 9L19 8ZM2 9L2 10L3 10L3 9ZM22 10L22 11L23 11L23 10ZM1 11L1 13L2 13L2 12L3 12L3 11ZM32 11L32 12L33 12L33 11ZM21 12L21 13L23 13L23 12ZM15 13L15 14L14 14L14 15L13 15L13 16L12 16L12 17L10 17L10 15L9 15L9 16L8 16L8 15L7 15L7 16L8 16L8 17L10 17L10 18L13 18L13 19L12 19L12 23L14 23L14 24L15 24L15 23L16 23L16 24L17 24L17 25L18 25L18 23L20 23L20 21L21 21L21 20L18 20L18 18L17 18L17 17L16 17L16 15L17 15L17 16L18 16L18 14L17 14L17 13ZM19 13L19 14L20 14L20 15L21 15L21 16L23 16L23 14L22 14L22 15L21 15L21 14L20 14L20 13ZM15 14L15 15L14 15L14 16L13 16L13 17L14 17L14 18L16 18L16 20L17 20L17 18L16 18L16 17L14 17L14 16L15 16L15 15L16 15L16 14ZM30 14L30 15L31 15L31 16L32 16L32 15L31 15L31 14ZM2 17L2 18L4 18L4 17ZM5 18L5 19L7 19L7 18ZM22 18L22 19L24 19L24 18ZM3 19L3 21L5 21L5 22L6 22L6 21L5 21L5 20L4 20L4 19ZM10 19L10 21L11 21L11 19ZM13 20L13 22L14 22L14 23L15 23L15 22L16 22L16 21L15 21L15 20ZM30 20L30 21L32 21L32 20ZM14 21L14 22L15 22L15 21ZM17 21L17 23L18 23L18 21ZM28 21L28 22L29 22L29 21ZM13 25L13 26L14 26L14 25ZM15 25L15 26L16 26L16 27L17 27L17 26L16 26L16 25ZM25 25L25 28L28 28L28 25ZM26 26L26 27L27 27L27 26ZM22 28L22 29L24 29L24 28ZM15 29L15 30L16 30L16 29ZM31 29L31 30L32 30L32 29ZM18 31L18 32L19 32L19 31ZM0 0L0 7L7 7L7 0ZM1 1L1 6L6 6L6 1ZM2 2L2 5L5 5L5 2ZM26 0L26 7L33 7L33 0ZM27 1L27 6L32 6L32 1ZM28 2L28 5L31 5L31 2ZM0 26L0 33L7 33L7 26ZM1 27L1 32L6 32L6 27ZM2 28L2 31L5 31L5 28Z" fill="#000000"/></g></g></svg>
