<?xml version="1.0" encoding="UTF-8"?>
<svg xmlns="http://www.w3.org/2000/svg" version="1.1" width="300" height="300" viewBox="0 0 300 300"><rect x="0" y="0" width="300" height="300" fill="#ffffff"/><g transform="scale(8.571)"><g transform="translate(1,1)"><path fill-rule="evenodd" d="M11 0L11 2L8 2L8 4L9 4L9 3L10 3L10 4L11 4L11 5L10 5L10 7L9 7L9 6L8 6L8 7L9 7L9 9L10 9L10 11L12 11L12 12L11 12L11 13L10 13L10 16L9 16L9 14L6 14L6 13L9 13L9 12L8 12L8 11L9 11L9 10L8 10L8 11L7 11L7 10L6 10L6 11L7 11L7 12L5 12L5 13L2 13L2 12L1 12L1 11L2 11L2 10L3 10L3 11L5 11L5 8L3 8L3 9L0 9L0 10L1 10L1 11L0 11L0 14L1 14L1 13L2 13L2 14L5 14L5 16L6 16L6 17L5 17L5 18L4 18L4 19L5 19L5 20L6 20L6 21L4 21L4 20L3 20L3 17L2 17L2 18L0 18L0 25L2 25L2 24L1 24L1 22L2 22L2 20L3 20L3 22L5 22L5 24L3 24L3 25L5 25L5 24L6 24L6 25L8 25L8 27L10 27L10 28L8 28L8 30L9 30L9 31L10 31L10 30L9 30L9 29L12 29L12 30L11 30L11 32L10 32L10 33L11 33L11 32L12 32L12 33L15 33L15 31L18 31L18 32L19 32L19 33L21 33L21 31L20 31L20 30L21 30L21 29L22 29L22 28L21 28L21 29L20 29L20 27L23 27L23 29L27 29L27 30L28 30L28 31L29 31L29 30L28 30L28 29L29 29L29 25L30 25L30 28L32 28L32 29L31 29L31 31L30 31L30 32L28 32L28 33L30 33L30 32L33 32L33 30L32 30L32 29L33 29L33 27L32 27L32 26L31 26L31 25L32 25L32 24L33 24L33 22L32 22L32 21L33 21L33 20L31 20L31 18L32 18L32 19L33 19L33 17L32 17L32 16L31 16L31 15L30 15L30 14L32 14L32 13L33 13L33 10L32 10L32 9L31 9L31 8L29 8L29 9L27 9L27 10L26 10L26 9L25 9L25 6L24 6L24 5L25 5L25 4L24 4L24 2L23 2L23 0L22 0L22 1L20 1L20 0L19 0L19 1L20 1L20 2L18 2L18 4L17 4L17 1L18 1L18 0L16 0L16 4L15 4L15 3L13 3L13 2L12 2L12 1L13 1L13 0ZM24 0L24 1L25 1L25 0ZM14 1L14 2L15 2L15 1ZM12 3L12 4L13 4L13 7L12 7L12 6L11 6L11 8L10 8L10 9L13 9L13 8L14 8L14 9L15 9L15 10L14 10L14 11L13 11L13 14L12 14L12 13L11 13L11 16L10 16L10 18L9 18L9 16L8 16L8 17L6 17L6 18L5 18L5 19L6 19L6 20L7 20L7 21L6 21L6 22L8 22L8 25L10 25L10 26L11 26L11 24L12 24L12 23L13 23L13 24L14 24L14 23L13 23L13 22L15 22L15 20L17 20L17 19L18 19L18 20L19 20L19 21L20 21L20 22L19 22L19 23L17 23L17 25L15 25L15 26L14 26L14 25L12 25L12 26L13 26L13 27L12 27L12 28L13 28L13 29L14 29L14 31L15 31L15 28L14 28L14 27L17 27L17 29L16 29L16 30L18 30L18 31L19 31L19 30L18 30L18 29L19 29L19 28L18 28L18 27L17 27L17 26L19 26L19 27L20 27L20 26L24 26L24 24L27 24L27 23L26 23L26 21L27 21L27 22L28 22L28 21L29 21L29 19L27 19L27 20L26 20L26 21L22 21L22 19L21 19L21 20L19 20L19 18L17 18L17 16L16 16L16 15L17 15L17 14L18 14L18 16L19 16L19 14L20 14L20 13L19 13L19 12L18 12L18 13L17 13L17 14L16 14L16 12L17 12L17 11L15 11L15 10L16 10L16 9L17 9L17 8L18 8L18 9L19 9L19 10L18 10L18 11L19 11L19 10L20 10L20 11L22 11L22 10L21 10L21 9L24 9L24 10L25 10L25 12L27 12L27 13L26 13L26 15L25 15L25 18L26 18L26 15L27 15L27 18L28 18L28 14L30 14L30 13L31 13L31 12L32 12L32 10L31 10L31 9L29 9L29 10L28 10L28 11L29 11L29 10L31 10L31 12L27 12L27 11L26 11L26 10L25 10L25 9L24 9L24 6L23 6L23 5L22 5L22 4L21 4L21 3L20 3L20 4L21 4L21 5L20 5L20 6L19 6L19 4L18 4L18 6L17 6L17 7L16 7L16 6L15 6L15 7L16 7L16 9L15 9L15 8L14 8L14 5L15 5L15 4L13 4L13 3ZM21 5L21 6L20 6L20 7L21 7L21 6L22 6L22 8L23 8L23 6L22 6L22 5ZM18 6L18 8L19 8L19 9L21 9L21 8L19 8L19 6ZM6 8L6 9L8 9L8 8ZM3 9L3 10L4 10L4 9ZM14 11L14 13L15 13L15 11ZM23 11L23 12L22 12L22 14L21 14L21 18L24 18L24 17L23 17L23 16L24 16L24 14L23 14L23 12L24 12L24 11ZM18 13L18 14L19 14L19 13ZM13 14L13 16L11 16L11 17L12 17L12 18L10 18L10 19L9 19L9 18L6 18L6 19L9 19L9 20L8 20L8 21L9 21L9 20L11 20L11 19L12 19L12 20L13 20L13 21L12 21L12 22L11 22L11 21L10 21L10 22L9 22L9 24L10 24L10 22L11 22L11 23L12 23L12 22L13 22L13 21L14 21L14 20L13 20L13 19L12 19L12 18L14 18L14 17L13 17L13 16L15 16L15 19L17 19L17 18L16 18L16 16L15 16L15 14ZM1 15L1 16L0 16L0 17L1 17L1 16L2 16L2 15ZM6 15L6 16L7 16L7 15ZM29 15L29 16L30 16L30 18L31 18L31 16L30 16L30 15ZM30 20L30 21L31 21L31 20ZM17 21L17 22L18 22L18 21ZM21 21L21 22L22 22L22 23L23 23L23 22L22 22L22 21ZM24 22L24 23L25 23L25 22ZM29 22L29 23L28 23L28 24L29 24L29 23L31 23L31 24L30 24L30 25L31 25L31 24L32 24L32 22ZM6 23L6 24L7 24L7 23ZM15 23L15 24L16 24L16 23ZM20 23L20 24L19 24L19 25L21 25L21 23ZM25 25L25 28L28 28L28 25ZM26 26L26 27L27 27L27 26ZM12 30L12 31L13 31L13 30ZM22 30L22 31L23 31L23 32L22 32L22 33L23 33L23 32L24 32L24 33L27 33L27 32L24 32L24 31L23 31L23 30ZM0 0L0 7L7 7L7 0ZM1 1L1 6L6 6L6 1ZM2 2L2 5L5 5L5 2ZM26 0L26 7L33 7L33 0ZM27 1L27 6L32 6L32 1ZM28 2L28 5L31 5L31 2ZM0 26L0 33L7 33L7 26ZM1 27L1 32L6 32L6 27ZM2 28L2 31L5 31L5 28Z" fill="#000000"/></g></g></svg>
