<?xml version="1.0" encoding="UTF-8"?>
<svg xmlns="http://www.w3.org/2000/svg" version="1.1" width="300" height="300" viewBox="0 0 300 300"><rect x="0" y="0" width="300" height="300" fill="#ffffff"/><g transform="scale(8.571)"><g transform="translate(1,1)"><path fill-rule="evenodd" d="M9 0L9 1L8 1L8 2L9 2L9 5L8 5L8 8L4 8L4 9L7 9L7 10L6 10L6 11L7 11L7 12L6 12L6 13L5 13L5 12L4 12L4 10L3 10L3 9L2 9L2 10L1 10L1 9L0 9L0 11L3 11L3 12L4 12L4 13L2 13L2 12L0 12L0 17L1 17L1 19L0 19L0 22L1 22L1 19L2 19L2 17L4 17L4 19L3 19L3 20L2 20L2 21L3 21L3 22L2 22L2 23L3 23L3 24L4 24L4 23L5 23L5 25L8 25L8 29L10 29L10 30L9 30L9 33L10 33L10 32L11 32L11 31L13 31L13 27L14 27L14 29L15 29L15 30L14 30L14 31L15 31L15 33L17 33L17 32L18 32L18 31L19 31L19 29L17 29L17 27L18 27L18 28L22 28L22 27L23 27L23 26L19 26L19 27L18 27L18 24L20 24L20 25L24 25L24 29L22 29L22 31L21 31L21 30L20 30L20 31L21 31L21 33L22 33L22 32L23 32L23 30L24 30L24 33L26 33L26 32L27 32L27 33L28 33L28 32L29 32L29 33L30 33L30 31L31 31L31 30L30 30L30 26L31 26L31 25L32 25L32 24L33 24L33 23L32 23L32 24L31 24L31 25L30 25L30 26L29 26L29 24L30 24L30 23L31 23L31 21L32 21L32 20L33 20L33 19L32 19L32 18L31 18L31 21L30 21L30 20L29 20L29 19L30 19L30 18L27 18L27 20L26 20L26 19L25 19L25 20L23 20L23 21L22 21L22 19L24 19L24 18L26 18L26 17L29 17L29 16L30 16L30 15L32 15L32 16L33 16L33 15L32 15L32 13L33 13L33 11L32 11L32 12L31 12L31 13L30 13L30 10L28 10L28 8L26 8L26 9L27 9L27 11L28 11L28 12L24 12L24 13L23 13L23 11L24 11L24 9L25 9L25 8L24 8L24 7L25 7L25 6L24 6L24 7L23 7L23 1L25 1L25 0L23 0L23 1L22 1L22 0L21 0L21 1L20 1L20 0L19 0L19 1L20 1L20 3L19 3L19 4L20 4L20 5L19 5L19 6L18 6L18 7L17 7L17 5L16 5L16 3L17 3L17 4L18 4L18 2L17 2L17 1L16 1L16 0L15 0L15 1L14 1L14 2L13 2L13 5L12 5L12 8L13 8L13 9L11 9L11 8L10 8L10 9L11 9L11 10L10 10L10 11L12 11L12 10L13 10L13 12L12 12L12 14L10 14L10 15L9 15L9 14L8 14L8 15L7 15L7 14L6 14L6 13L11 13L11 12L8 12L8 11L7 11L7 10L8 10L8 8L9 8L9 5L10 5L10 4L11 4L11 2L12 2L12 1L13 1L13 0L12 0L12 1L11 1L11 0ZM9 1L9 2L11 2L11 1ZM15 1L15 2L14 2L14 6L13 6L13 7L14 7L14 8L16 8L16 6L15 6L15 3L16 3L16 1ZM24 2L24 5L25 5L25 2ZM21 3L21 4L22 4L22 3ZM10 6L10 7L11 7L11 6ZM14 6L14 7L15 7L15 6ZM19 6L19 7L18 7L18 9L15 9L15 10L14 10L14 11L15 11L15 10L16 10L16 13L15 13L15 12L14 12L14 13L13 13L13 15L14 15L14 17L13 17L13 18L14 18L14 17L17 17L17 20L15 20L15 21L14 21L14 23L13 23L13 24L14 24L14 23L15 23L15 24L16 24L16 25L15 25L15 26L14 26L14 27L15 27L15 29L16 29L16 27L17 27L17 24L18 24L18 23L20 23L20 22L21 22L21 23L22 23L22 24L24 24L24 23L25 23L25 24L29 24L29 23L30 23L30 22L29 22L29 21L27 21L27 22L25 22L25 21L23 21L23 22L21 22L21 21L20 21L20 20L21 20L21 18L22 18L22 17L24 17L24 16L27 16L27 15L28 15L28 14L29 14L29 15L30 15L30 13L26 13L26 14L24 14L24 16L23 16L23 13L22 13L22 11L23 11L23 9L24 9L24 8L23 8L23 7L22 7L22 6L21 6L21 7L20 7L20 6ZM21 7L21 10L20 10L20 9L18 9L18 10L19 10L19 13L18 13L18 20L17 20L17 21L15 21L15 22L16 22L16 23L18 23L18 22L19 22L19 16L20 16L20 17L22 17L22 15L21 15L21 14L22 14L22 13L21 13L21 10L22 10L22 9L23 9L23 8L22 8L22 7ZM31 8L31 9L32 9L32 8ZM1 13L1 14L2 14L2 13ZM14 13L14 15L15 15L15 16L17 16L17 15L15 15L15 13ZM16 13L16 14L17 14L17 13ZM19 13L19 15L20 15L20 16L21 16L21 15L20 15L20 13ZM4 14L4 15L2 15L2 16L4 16L4 17L5 17L5 18L7 18L7 19L4 19L4 20L3 20L3 21L4 21L4 22L3 22L3 23L4 23L4 22L5 22L5 21L6 21L6 22L7 22L7 21L8 21L8 22L11 22L11 21L12 21L12 22L13 22L13 19L12 19L12 20L11 20L11 19L10 19L10 18L7 18L7 17L12 17L12 16L7 16L7 15L6 15L6 14ZM5 16L5 17L7 17L7 16ZM7 19L7 20L6 20L6 21L7 21L7 20L9 20L9 21L11 21L11 20L9 20L9 19ZM4 20L4 21L5 21L5 20ZM17 21L17 22L18 22L18 21ZM27 22L27 23L28 23L28 22ZM6 23L6 24L7 24L7 23ZM8 23L8 25L9 25L9 24L11 24L11 23ZM0 24L0 25L2 25L2 24ZM10 25L10 26L11 26L11 28L10 28L10 27L9 27L9 28L10 28L10 29L12 29L12 27L13 27L13 25L12 25L12 26L11 26L11 25ZM25 25L25 28L28 28L28 25ZM26 26L26 27L27 27L27 26ZM31 27L31 29L32 29L32 30L33 30L33 28L32 28L32 27ZM24 29L24 30L25 30L25 29ZM10 30L10 31L11 31L11 30ZM27 30L27 31L28 31L28 30ZM29 30L29 31L30 31L30 30ZM12 32L12 33L14 33L14 32ZM19 32L19 33L20 33L20 32ZM32 32L32 33L33 33L33 32ZM0 0L0 7L7 7L7 0ZM1 1L1 6L6 6L6 1ZM2 2L2 5L5 5L5 2ZM26 0L26 7L33 7L33 0ZM27 1L27 6L32 6L32 1ZM28 2L28 5L31 5L31 2ZM0 26L0 33L7 33L7 26ZM1 27L1 32L6 32L6 27ZM2 28L2 31L5 31L5 28Z" fill="#000000"/></g></g></svg>
