<?xml version="1.0" encoding="UTF-8"?>
<svg xmlns="http://www.w3.org/2000/svg" version="1.1" width="300" height="300" viewBox="0 0 300 300"><rect x="0" y="0" width="300" height="300" fill="#ffffff"/><g transform="scale(9.677)"><g transform="translate(1,1)"><path fill-rule="evenodd" d="M8 0L8 3L9 3L9 4L10 4L10 7L9 7L9 5L8 5L8 10L6 10L6 9L7 9L7 8L6 8L6 9L5 9L5 8L2 8L2 9L4 9L4 10L2 10L2 12L1 12L1 13L0 13L0 21L1 21L1 16L3 16L3 14L4 14L4 15L5 15L5 16L4 16L4 17L2 17L2 18L4 18L4 20L3 20L3 19L2 19L2 20L3 20L3 21L4 21L4 20L5 20L5 21L7 21L7 20L5 20L5 17L7 17L7 16L6 16L6 15L7 15L7 14L6 14L6 13L8 13L8 12L9 12L9 10L10 10L10 11L11 11L11 10L12 10L12 11L13 11L13 10L14 10L14 9L15 9L15 8L16 8L16 7L17 7L17 6L16 6L16 7L15 7L15 6L14 6L14 3L15 3L15 2L16 2L16 4L15 4L15 5L16 5L16 4L17 4L17 5L18 5L18 9L16 9L16 10L15 10L15 11L14 11L14 12L15 12L15 15L14 15L14 13L13 13L13 15L12 15L12 13L11 13L11 14L10 14L10 16L9 16L9 18L6 18L6 19L9 19L9 20L8 20L8 22L10 22L10 21L11 21L11 20L12 20L12 19L13 19L13 21L12 21L12 22L11 22L11 23L10 23L10 24L8 24L8 27L9 27L9 26L10 26L10 25L11 25L11 26L12 26L12 29L13 29L13 27L15 27L15 26L16 26L16 25L18 25L18 26L17 26L17 28L18 28L18 29L20 29L20 28L21 28L21 27L22 27L22 29L23 29L23 26L24 26L24 29L25 29L25 26L26 26L26 25L27 25L27 24L28 24L28 25L29 25L29 24L28 24L28 23L27 23L27 24L26 24L26 23L25 23L25 22L26 22L26 21L27 21L27 22L29 22L29 20L28 20L28 19L27 19L27 18L29 18L29 16L28 16L28 15L27 15L27 16L26 16L26 15L25 15L25 17L21 17L21 14L22 14L22 16L23 16L23 13L22 13L22 12L23 12L23 10L25 10L25 11L24 11L24 12L25 12L25 13L24 13L24 14L26 14L26 13L27 13L27 14L29 14L29 12L28 12L28 11L27 11L27 9L28 9L28 10L29 10L29 8L26 8L26 9L24 9L24 8L21 8L21 10L20 10L20 9L19 9L19 8L20 8L20 7L21 7L21 4L20 4L20 3L21 3L21 1L20 1L20 0L19 0L19 1L18 1L18 2L19 2L19 4L18 4L18 3L17 3L17 2L16 2L16 1L15 1L15 0L14 0L14 1L15 1L15 2L14 2L14 3L13 3L13 1L11 1L11 0ZM9 1L9 2L11 2L11 3L10 3L10 4L11 4L11 3L12 3L12 5L11 5L11 8L9 8L9 9L10 9L10 10L11 10L11 8L12 8L12 9L14 9L14 8L12 8L12 5L13 5L13 3L12 3L12 2L11 2L11 1ZM19 1L19 2L20 2L20 1ZM19 5L19 7L20 7L20 5ZM13 6L13 7L14 7L14 6ZM0 9L0 11L1 11L1 9ZM18 10L18 11L16 11L16 15L17 15L17 14L19 14L19 15L20 15L20 14L19 14L19 13L21 13L21 12L22 12L22 10L21 10L21 11L20 11L20 10ZM3 11L3 12L5 12L5 11ZM6 11L6 12L7 12L7 11ZM18 11L18 12L20 12L20 11ZM26 11L26 12L27 12L27 11ZM1 13L1 14L3 14L3 13ZM4 13L4 14L5 14L5 13ZM8 14L8 15L9 15L9 14ZM11 15L11 16L10 16L10 17L11 17L11 19L10 19L10 20L11 20L11 19L12 19L12 17L15 17L15 18L16 18L16 20L14 20L14 21L16 21L16 22L15 22L15 23L14 23L14 22L13 22L13 23L14 23L14 24L13 24L13 25L12 25L12 26L13 26L13 25L15 25L15 24L17 24L17 23L18 23L18 24L19 24L19 26L18 26L18 27L19 27L19 28L20 28L20 27L19 27L19 26L23 26L23 25L20 25L20 24L19 24L19 23L18 23L18 22L20 22L20 21L18 21L18 20L19 20L19 19L20 19L20 20L22 20L22 18L21 18L21 19L20 19L20 18L19 18L19 19L18 19L18 17L19 17L19 16L18 16L18 17L17 17L17 16L12 16L12 15ZM11 16L11 17L12 17L12 16ZM25 17L25 18L24 18L24 20L25 20L25 18L27 18L27 17ZM17 19L17 20L16 20L16 21L17 21L17 20L18 20L18 19ZM26 19L26 20L27 20L27 19ZM21 21L21 24L24 24L24 21ZM16 22L16 23L17 23L17 22ZM22 22L22 23L23 23L23 22ZM11 23L11 24L12 24L12 23ZM24 25L24 26L25 26L25 25ZM27 26L27 28L26 28L26 29L27 29L27 28L28 28L28 26ZM10 27L10 28L11 28L11 27ZM0 0L0 7L7 7L7 0ZM1 1L1 6L6 6L6 1ZM2 2L2 5L5 5L5 2ZM22 0L22 7L29 7L29 0ZM23 1L23 6L28 6L28 1ZM24 2L24 5L27 5L27 2ZM0 22L0 29L7 29L7 22ZM1 23L1 28L6 28L6 23ZM2 24L2 27L5 27L5 24Z" fill="#000000"/></g></g></svg>
