<?xml version="1.0" encoding="UTF-8"?>
<svg xmlns="http://www.w3.org/2000/svg" version="1.1" width="300" height="300" viewBox="0 0 300 300"><rect x="0" y="0" width="300" height="300" fill="#ffffff"/><g transform="scale(9.677)"><g transform="translate(1,1)"><path fill-rule="evenodd" d="M8 0L8 3L9 3L9 5L8 5L8 9L7 9L7 8L6 8L6 9L5 9L5 8L2 8L2 10L3 10L3 9L4 9L4 11L3 11L3 14L1 14L1 15L0 15L0 21L1 21L1 16L3 16L3 17L2 17L2 18L3 18L3 19L2 19L2 21L4 21L4 20L5 20L5 21L7 21L7 20L8 20L8 22L9 22L9 23L12 23L12 24L10 24L10 25L9 25L9 24L8 24L8 27L9 27L9 26L11 26L11 27L10 27L10 28L11 28L11 29L13 29L13 27L15 27L15 29L16 29L16 27L17 27L17 28L18 28L18 29L20 29L20 28L21 28L21 27L22 27L22 29L23 29L23 26L24 26L24 29L25 29L25 26L26 26L26 25L27 25L27 24L28 24L28 25L29 25L29 24L28 24L28 23L27 23L27 24L26 24L26 23L25 23L25 22L26 22L26 21L27 21L27 22L29 22L29 20L28 20L28 19L27 19L27 18L29 18L29 16L28 16L28 15L27 15L27 16L26 16L26 15L25 15L25 17L21 17L21 14L22 14L22 16L23 16L23 13L22 13L22 12L23 12L23 10L25 10L25 11L24 11L24 12L25 12L25 13L24 13L24 14L26 14L26 13L27 13L27 14L29 14L29 12L28 12L28 11L27 11L27 9L28 9L28 10L29 10L29 8L26 8L26 9L24 9L24 8L21 8L21 10L20 10L20 9L19 9L19 8L20 8L20 7L21 7L21 4L20 4L20 3L21 3L21 1L20 1L20 0L19 0L19 1L18 1L18 2L19 2L19 4L18 4L18 3L16 3L16 4L15 4L15 5L16 5L16 4L18 4L18 5L17 5L17 6L16 6L16 7L15 7L15 6L14 6L14 7L13 7L13 5L12 5L12 2L9 2L9 1L10 1L10 0ZM11 0L11 1L13 1L13 0ZM14 0L14 1L15 1L15 2L14 2L14 3L13 3L13 4L14 4L14 3L15 3L15 2L17 2L17 1L15 1L15 0ZM19 1L19 2L20 2L20 1ZM10 3L10 4L11 4L11 3ZM9 5L9 9L10 9L10 10L8 10L8 11L6 11L6 12L7 12L7 13L6 13L6 14L7 14L7 15L4 15L4 14L5 14L5 13L4 13L4 14L3 14L3 16L4 16L4 17L3 17L3 18L4 18L4 17L5 17L5 20L7 20L7 19L6 19L6 18L7 18L7 17L8 17L8 16L9 16L9 17L10 17L10 18L11 18L11 16L12 16L12 15L15 15L15 12L16 12L16 15L17 15L17 17L16 17L16 16L15 16L15 17L14 17L14 16L13 16L13 17L12 17L12 18L13 18L13 17L14 17L14 18L16 18L16 19L15 19L15 20L14 20L14 21L13 21L13 19L12 19L12 21L10 21L10 22L12 22L12 21L13 21L13 23L14 23L14 24L13 24L13 25L12 25L12 27L13 27L13 25L14 25L14 26L15 26L15 24L18 24L18 25L17 25L17 26L18 26L18 27L19 27L19 28L20 28L20 27L19 27L19 26L23 26L23 25L20 25L20 24L19 24L19 22L20 22L20 21L18 21L18 20L19 20L19 19L20 19L20 20L22 20L22 18L21 18L21 19L20 19L20 18L19 18L19 19L18 19L18 15L20 15L20 14L19 14L19 13L21 13L21 12L22 12L22 10L21 10L21 11L20 11L20 10L18 10L18 11L17 11L17 10L15 10L15 9L16 9L16 8L17 8L17 9L18 9L18 8L19 8L19 7L20 7L20 5L18 5L18 6L17 6L17 7L16 7L16 8L15 8L15 7L14 7L14 10L12 10L12 9L13 9L13 8L12 8L12 5ZM10 6L10 7L11 7L11 6ZM18 6L18 7L19 7L19 6ZM11 8L11 9L12 9L12 8ZM0 9L0 11L1 11L1 9ZM6 9L6 10L7 10L7 9ZM10 10L10 11L11 11L11 10ZM4 11L4 12L5 12L5 11ZM14 11L14 12L15 12L15 11ZM16 11L16 12L17 12L17 11ZM18 11L18 12L20 12L20 11ZM26 11L26 12L27 12L27 11ZM1 12L1 13L2 13L2 12ZM11 12L11 15L12 15L12 12ZM9 13L9 14L8 14L8 15L9 15L9 16L10 16L10 15L9 15L9 14L10 14L10 13ZM17 14L17 15L18 15L18 14ZM6 16L6 17L7 17L7 16ZM25 17L25 18L24 18L24 20L25 20L25 18L27 18L27 17ZM8 18L8 19L9 19L9 18ZM3 19L3 20L4 20L4 19ZM10 19L10 20L11 20L11 19ZM16 19L16 21L14 21L14 22L16 22L16 23L18 23L18 22L16 22L16 21L17 21L17 20L18 20L18 19ZM26 19L26 20L27 20L27 19ZM21 21L21 24L24 24L24 21ZM22 22L22 23L23 23L23 22ZM18 25L18 26L19 26L19 25ZM24 25L24 26L25 26L25 25ZM27 26L27 28L26 28L26 29L27 29L27 28L28 28L28 26ZM0 0L0 7L7 7L7 0ZM1 1L1 6L6 6L6 1ZM2 2L2 5L5 5L5 2ZM22 0L22 7L29 7L29 0ZM23 1L23 6L28 6L28 1ZM24 2L24 5L27 5L27 2ZM0 22L0 29L7 29L7 22ZM1 23L1 28L6 28L6 23ZM2 24L2 27L5 27L5 24Z" fill="#000000"/></g></g></svg>
