<?xml version="1.0" encoding="UTF-8"?>
<svg xmlns="http://www.w3.org/2000/svg" version="1.1" width="300" height="300" viewBox="0 0 300 300"><rect x="0" y="0" width="300" height="300" fill="#ffffff"/><g transform="scale(8.571)"><g transform="translate(1,1)"><path fill-rule="evenodd" d="M11 0L11 2L8 2L8 4L9 4L9 3L10 3L10 4L12 4L12 5L13 5L13 4L15 4L15 3L13 3L13 2L12 2L12 1L13 1L13 0ZM16 0L16 5L14 5L14 8L13 8L13 6L12 6L12 7L11 7L11 5L10 5L10 7L9 7L9 6L8 6L8 7L9 7L9 10L8 10L8 11L7 11L7 10L6 10L6 11L7 11L7 12L5 12L5 13L4 13L4 12L3 12L3 13L2 13L2 12L1 12L1 11L2 11L2 10L3 10L3 11L5 11L5 8L3 8L3 9L0 9L0 10L1 10L1 11L0 11L0 14L1 14L1 13L2 13L2 14L3 14L3 16L2 16L2 15L1 15L1 16L0 16L0 18L1 18L1 16L2 16L2 20L0 20L0 25L2 25L2 24L1 24L1 21L2 21L2 20L3 20L3 22L5 22L5 24L3 24L3 25L5 25L5 24L6 24L6 25L8 25L8 27L9 27L9 28L8 28L8 30L9 30L9 31L10 31L10 30L9 30L9 28L10 28L10 29L12 29L12 30L11 30L11 32L10 32L10 33L11 33L11 32L12 32L12 33L15 33L15 31L18 31L18 32L19 32L19 33L21 33L21 31L20 31L20 30L21 30L21 29L22 29L22 28L21 28L21 29L20 29L20 27L23 27L23 29L27 29L27 30L28 30L28 31L29 31L29 30L28 30L28 29L29 29L29 25L30 25L30 28L32 28L32 29L31 29L31 31L30 31L30 32L28 32L28 33L30 33L30 32L33 32L33 30L32 30L32 29L33 29L33 27L32 27L32 26L31 26L31 25L32 25L32 24L33 24L33 22L32 22L32 21L33 21L33 20L31 20L31 18L32 18L32 19L33 19L33 17L32 17L32 16L31 16L31 15L30 15L30 14L32 14L32 13L33 13L33 10L32 10L32 9L31 9L31 8L29 8L29 9L27 9L27 10L26 10L26 9L25 9L25 6L24 6L24 5L25 5L25 4L24 4L24 2L23 2L23 0L22 0L22 1L20 1L20 0L19 0L19 1L20 1L20 2L18 2L18 4L17 4L17 1L18 1L18 0ZM24 0L24 1L25 1L25 0ZM14 1L14 2L15 2L15 1ZM20 3L20 4L18 4L18 6L17 6L17 8L14 8L14 9L15 9L15 10L16 10L16 9L17 9L17 11L13 11L13 12L14 12L14 13L13 13L13 14L12 14L12 13L11 13L11 12L12 12L12 11L11 11L11 10L10 10L10 11L8 11L8 13L6 13L6 14L7 14L7 15L6 15L6 16L5 16L5 14L4 14L4 13L3 13L3 14L4 14L4 16L3 16L3 20L4 20L4 21L5 21L5 22L8 22L8 25L10 25L10 26L9 26L9 27L10 27L10 26L11 26L11 25L12 25L12 26L13 26L13 27L12 27L12 28L14 28L14 31L15 31L15 28L14 28L14 26L13 26L13 25L12 25L12 23L13 23L13 24L14 24L14 23L13 23L13 22L15 22L15 27L17 27L17 29L16 29L16 30L18 30L18 31L19 31L19 28L18 28L18 27L17 27L17 26L19 26L19 27L20 27L20 26L24 26L24 24L27 24L27 23L26 23L26 21L27 21L27 22L28 22L28 21L29 21L29 19L26 19L26 15L27 15L27 18L28 18L28 14L30 14L30 13L31 13L31 12L32 12L32 10L31 10L31 9L29 9L29 10L28 10L28 11L29 11L29 10L31 10L31 12L27 12L27 11L26 11L26 10L25 10L25 9L24 9L24 6L23 6L23 5L22 5L22 4L21 4L21 3ZM20 4L20 5L19 5L19 6L18 6L18 8L17 8L17 9L18 9L18 10L19 10L19 11L17 11L17 12L16 12L16 14L17 14L17 15L16 15L16 16L15 16L15 13L14 13L14 14L13 14L13 16L11 16L11 13L10 13L10 12L9 12L9 13L8 13L8 14L9 14L9 13L10 13L10 16L9 16L9 18L6 18L6 17L7 17L7 16L8 16L8 15L7 15L7 16L6 16L6 17L4 17L4 18L5 18L5 21L7 21L7 20L6 20L6 19L9 19L9 20L8 20L8 21L9 21L9 20L11 20L11 19L12 19L12 20L13 20L13 21L12 21L12 22L13 22L13 21L14 21L14 20L13 20L13 19L12 19L12 18L14 18L14 17L13 17L13 16L15 16L15 19L17 19L17 20L15 20L15 21L18 21L18 22L16 22L16 23L19 23L19 20L20 20L20 22L22 22L22 23L23 23L23 22L22 22L22 21L26 21L26 20L25 20L25 15L26 15L26 13L27 13L27 12L25 12L25 10L24 10L24 9L21 9L21 8L20 8L20 7L21 7L21 6L22 6L22 8L23 8L23 6L22 6L22 5L21 5L21 4ZM20 5L20 6L19 6L19 7L20 7L20 6L21 6L21 5ZM15 6L15 7L16 7L16 6ZM6 8L6 9L8 9L8 8ZM10 8L10 9L11 9L11 8ZM12 8L12 9L13 9L13 8ZM18 8L18 9L19 9L19 10L20 10L20 11L22 11L22 10L21 10L21 9L20 9L20 8ZM3 9L3 10L4 10L4 9ZM23 11L23 12L22 12L22 14L21 14L21 18L24 18L24 17L23 17L23 16L24 16L24 14L23 14L23 12L24 12L24 11ZM17 12L17 14L18 14L18 16L19 16L19 14L20 14L20 13L19 13L19 12ZM18 13L18 14L19 14L19 13ZM29 15L29 16L30 16L30 18L31 18L31 16L30 16L30 15ZM10 16L10 18L9 18L9 19L10 19L10 18L12 18L12 17L11 17L11 16ZM16 16L16 18L17 18L17 19L18 19L18 20L19 20L19 18L17 18L17 16ZM21 19L21 21L22 21L22 19ZM30 20L30 21L31 21L31 20ZM10 21L10 22L9 22L9 24L10 24L10 22L11 22L11 21ZM24 22L24 23L25 23L25 22ZM29 22L29 23L28 23L28 24L29 24L29 23L31 23L31 24L30 24L30 25L31 25L31 24L32 24L32 22ZM6 23L6 24L7 24L7 23ZM16 24L16 25L17 25L17 24ZM19 24L19 25L21 25L21 24ZM25 25L25 28L28 28L28 25ZM26 26L26 27L27 27L27 26ZM12 30L12 31L13 31L13 30ZM22 30L22 31L23 31L23 32L22 32L22 33L23 33L23 32L24 32L24 33L27 33L27 32L24 32L24 31L23 31L23 30ZM0 0L0 7L7 7L7 0ZM1 1L1 6L6 6L6 1ZM2 2L2 5L5 5L5 2ZM26 0L26 7L33 7L33 0ZM27 1L27 6L32 6L32 1ZM28 2L28 5L31 5L31 2ZM0 26L0 33L7 33L7 26ZM1 27L1 32L6 32L6 27ZM2 28L2 31L5 31L5 28Z" fill="#000000"/></g></g></svg>
