<?xml version="1.0" encoding="UTF-8"?>
<svg xmlns="http://www.w3.org/2000/svg" version="1.1" width="300" height="300" viewBox="0 0 300 300"><rect x="0" y="0" width="300" height="300" fill="#ffffff"/><g transform="scale(9.677)"><g transform="translate(1,1)"><path fill-rule="evenodd" d="M8 0L8 3L9 3L9 5L8 5L8 9L9 9L9 10L10 10L10 11L12 11L12 10L10 10L10 9L9 9L9 6L10 6L10 8L11 8L11 9L13 9L13 10L14 10L14 9L15 9L15 10L16 10L16 9L15 9L15 8L16 8L16 7L17 7L17 6L16 6L16 7L15 7L15 5L16 5L16 4L18 4L18 7L19 7L19 8L18 8L18 9L17 9L17 11L18 11L18 12L20 12L20 11L21 11L21 10L22 10L22 12L21 12L21 13L19 13L19 14L20 14L20 15L16 15L16 13L15 13L15 14L14 14L14 15L12 15L12 12L11 12L11 15L12 15L12 16L10 16L10 15L9 15L9 14L8 14L8 15L9 15L9 16L8 16L8 17L9 17L9 18L6 18L6 19L8 19L8 22L10 22L10 21L11 21L11 20L10 20L10 19L12 19L12 20L13 20L13 21L12 21L12 22L11 22L11 23L12 23L12 24L11 24L11 25L12 25L12 24L13 24L13 22L14 22L14 24L15 24L15 25L16 25L16 28L18 28L18 29L20 29L20 28L21 28L21 27L22 27L22 29L23 29L23 26L24 26L24 29L25 29L25 26L26 26L26 25L27 25L27 24L28 24L28 25L29 25L29 24L28 24L28 23L27 23L27 24L26 24L26 23L25 23L25 22L26 22L26 21L27 21L27 22L29 22L29 20L28 20L28 19L27 19L27 18L29 18L29 16L28 16L28 15L27 15L27 16L26 16L26 15L25 15L25 17L21 17L21 14L22 14L22 16L23 16L23 13L22 13L22 12L23 12L23 10L25 10L25 11L24 11L24 12L25 12L25 13L24 13L24 14L26 14L26 13L27 13L27 14L29 14L29 12L28 12L28 11L27 11L27 9L28 9L28 10L29 10L29 8L26 8L26 9L24 9L24 8L21 8L21 10L20 10L20 9L19 9L19 8L20 8L20 7L21 7L21 4L20 4L20 3L21 3L21 1L20 1L20 0L19 0L19 1L18 1L18 2L19 2L19 4L18 4L18 3L16 3L16 2L17 2L17 1L15 1L15 0L14 0L14 1L15 1L15 2L14 2L14 3L13 3L13 5L12 5L12 4L10 4L10 3L12 3L12 2L13 2L13 1L12 1L12 0L11 0L11 1L12 1L12 2L9 2L9 1L10 1L10 0ZM19 1L19 2L20 2L20 1ZM14 3L14 5L15 5L15 4L16 4L16 3ZM11 5L11 8L12 8L12 5ZM19 5L19 7L20 7L20 5ZM13 6L13 9L14 9L14 8L15 8L15 7L14 7L14 6ZM2 8L2 10L4 10L4 11L5 11L5 12L3 12L3 11L2 11L2 12L1 12L1 13L2 13L2 12L3 12L3 14L2 14L2 15L0 15L0 21L1 21L1 16L3 16L3 14L5 14L5 15L4 15L4 18L3 18L3 17L2 17L2 19L4 19L4 20L3 20L3 21L4 21L4 20L5 20L5 21L7 21L7 20L5 20L5 17L7 17L7 16L5 16L5 15L7 15L7 14L6 14L6 13L8 13L8 12L9 12L9 11L8 11L8 10L6 10L6 9L7 9L7 8L6 8L6 9L5 9L5 8ZM0 9L0 11L1 11L1 9ZM18 10L18 11L20 11L20 10ZM6 11L6 12L8 12L8 11ZM14 11L14 12L15 12L15 11ZM26 11L26 12L27 12L27 11ZM9 16L9 17L10 17L10 16ZM15 16L15 17L14 17L14 18L15 18L15 20L14 20L14 21L15 21L15 20L16 20L16 18L17 18L17 19L18 19L18 20L17 20L17 21L16 21L16 22L15 22L15 24L17 24L17 23L19 23L19 22L20 22L20 21L18 21L18 20L19 20L19 19L20 19L20 20L22 20L22 18L21 18L21 19L20 19L20 18L19 18L19 19L18 19L18 17L19 17L19 16L17 16L17 17L16 17L16 16ZM25 17L25 18L24 18L24 20L25 20L25 18L27 18L27 17ZM12 18L12 19L13 19L13 18ZM26 19L26 20L27 20L27 19ZM21 21L21 24L24 24L24 21ZM16 22L16 23L17 23L17 22ZM22 22L22 23L23 23L23 22ZM8 24L8 27L9 27L9 26L10 26L10 24ZM18 24L18 25L17 25L17 26L18 26L18 27L19 27L19 28L20 28L20 27L19 27L19 26L23 26L23 25L20 25L20 24ZM13 25L13 26L12 26L12 29L13 29L13 27L15 27L15 26L14 26L14 25ZM18 25L18 26L19 26L19 25ZM24 25L24 26L25 26L25 25ZM27 26L27 28L26 28L26 29L27 29L27 28L28 28L28 26ZM10 27L10 28L11 28L11 27ZM0 0L0 7L7 7L7 0ZM1 1L1 6L6 6L6 1ZM2 2L2 5L5 5L5 2ZM22 0L22 7L29 7L29 0ZM23 1L23 6L28 6L28 1ZM24 2L24 5L27 5L27 2ZM0 22L0 29L7 29L7 22ZM1 23L1 28L6 28L6 23ZM2 24L2 27L5 27L5 24Z" fill="#000000"/></g></g></svg>
