<?xml version="1.0" encoding="UTF-8"?>
<svg xmlns="http://www.w3.org/2000/svg" version="1.1" width="300" height="300" viewBox="0 0 300 300"><rect x="0" y="0" width="300" height="300" fill="#ffffff"/><g transform="scale(8.571)"><g transform="translate(1,1)"><path fill-rule="evenodd" d="M8 0L8 1L9 1L9 0ZM11 0L11 3L10 3L10 2L8 2L8 3L10 3L10 4L11 4L11 6L10 6L10 7L9 7L9 6L8 6L8 8L9 8L9 10L12 10L12 11L11 11L11 13L12 13L12 14L14 14L14 15L13 15L13 16L12 16L12 17L10 17L10 16L11 16L11 15L10 15L10 16L8 16L8 15L9 15L9 13L10 13L10 11L9 11L9 12L8 12L8 11L7 11L7 10L5 10L5 9L7 9L7 8L5 8L5 9L4 9L4 10L3 10L3 9L0 9L0 10L1 10L1 11L0 11L0 14L1 14L1 16L0 16L0 25L2 25L2 24L1 24L1 22L2 22L2 23L3 23L3 22L6 22L6 23L7 23L7 24L6 24L6 25L8 25L8 26L9 26L9 27L8 27L8 28L9 28L9 27L10 27L10 25L8 25L8 23L9 23L9 24L11 24L11 28L10 28L10 30L9 30L9 31L10 31L10 30L11 30L11 32L12 32L12 33L13 33L13 31L14 31L14 29L13 29L13 28L12 28L12 27L13 27L13 26L12 26L12 25L17 25L17 26L16 26L16 27L14 27L14 28L15 28L15 31L18 31L18 32L19 32L19 31L20 31L20 30L21 30L21 29L22 29L22 31L23 31L23 32L24 32L24 33L25 33L25 32L26 32L26 33L27 33L27 31L25 31L25 32L24 32L24 31L23 31L23 30L24 30L24 29L27 29L27 30L28 30L28 31L29 31L29 30L30 30L30 28L33 28L33 27L31 27L31 26L33 26L33 25L32 25L32 24L33 24L33 23L32 23L32 24L31 24L31 23L30 23L30 22L32 22L32 21L33 21L33 16L31 16L31 15L32 15L32 14L33 14L33 11L32 11L32 12L31 12L31 10L32 10L32 9L33 9L33 8L32 8L32 9L31 9L31 8L30 8L30 9L31 9L31 10L30 10L30 12L31 12L31 13L30 13L30 14L29 14L29 15L28 15L28 17L29 17L29 15L30 15L30 16L31 16L31 18L27 18L27 17L26 17L26 18L25 18L25 13L26 13L26 14L27 14L27 12L28 12L28 10L29 10L29 8L28 8L28 9L27 9L27 8L26 8L26 9L25 9L25 6L24 6L24 9L23 9L23 4L24 4L24 5L25 5L25 4L24 4L24 2L23 2L23 0L22 0L22 1L21 1L21 2L20 2L20 0L19 0L19 2L18 2L18 4L19 4L19 6L18 6L18 8L16 8L16 10L15 10L15 9L11 9L11 8L14 8L14 7L15 7L15 6L16 6L16 7L17 7L17 6L16 6L16 4L17 4L17 3L16 3L16 4L15 4L15 3L14 3L14 1L13 1L13 0ZM16 0L16 2L17 2L17 1L18 1L18 0ZM24 0L24 1L25 1L25 0ZM12 1L12 2L13 2L13 1ZM19 2L19 3L20 3L20 2ZM22 2L22 3L23 3L23 2ZM8 4L8 5L9 5L9 4ZM12 4L12 5L13 5L13 7L14 7L14 4ZM21 4L21 5L20 5L20 6L19 6L19 8L18 8L18 9L19 9L19 10L18 10L18 11L17 11L17 12L18 12L18 11L19 11L19 10L21 10L21 11L22 11L22 14L21 14L21 13L20 13L20 14L19 14L19 13L17 13L17 14L18 14L18 16L16 16L16 11L15 11L15 10L14 10L14 11L15 11L15 12L13 12L13 13L15 13L15 16L16 16L16 17L17 17L17 19L15 19L15 17L14 17L14 16L13 16L13 17L14 17L14 18L12 18L12 19L11 19L11 21L12 21L12 22L10 22L10 20L9 20L9 21L6 21L6 20L7 20L7 19L5 19L5 21L6 21L6 22L10 22L10 23L11 23L11 24L12 24L12 22L14 22L14 23L13 23L13 24L14 24L14 23L15 23L15 24L17 24L17 25L18 25L18 27L17 27L17 29L18 29L18 31L19 31L19 25L20 25L20 24L21 24L21 26L22 26L22 27L20 27L20 28L22 28L22 29L24 29L24 28L23 28L23 26L24 26L24 24L27 24L27 22L28 22L28 20L29 20L29 19L27 19L27 20L25 20L25 21L23 21L23 20L22 20L22 19L19 19L19 18L18 18L18 16L19 16L19 15L20 15L20 14L21 14L21 16L20 16L20 17L21 17L21 18L22 18L22 17L24 17L24 14L23 14L23 11L24 11L24 10L25 10L25 12L27 12L27 9L26 9L26 10L25 10L25 9L24 9L24 10L23 10L23 11L22 11L22 10L21 10L21 9L22 9L22 6L21 6L21 5L22 5L22 4ZM11 6L11 7L12 7L12 6ZM20 6L20 9L21 9L21 6ZM1 11L1 12L2 12L2 13L3 13L3 14L2 14L2 16L1 16L1 19L2 19L2 22L3 22L3 20L4 20L4 18L9 18L9 19L10 19L10 18L9 18L9 17L8 17L8 16L7 16L7 15L8 15L8 14L7 14L7 13L6 13L6 14L7 14L7 15L6 15L6 16L7 16L7 17L5 17L5 15L3 15L3 14L4 14L4 13L5 13L5 12L4 12L4 11ZM6 11L6 12L7 12L7 11ZM31 13L31 14L30 14L30 15L31 15L31 14L32 14L32 13ZM22 14L22 15L23 15L23 14ZM26 15L26 16L27 16L27 15ZM2 16L2 19L3 19L3 16ZM31 18L31 19L32 19L32 18ZM12 19L12 21L13 21L13 20L15 20L15 22L17 22L17 21L18 21L18 23L17 23L17 24L18 24L18 23L19 23L19 24L20 24L20 22L22 22L22 24L24 24L24 23L25 23L25 22L22 22L22 21L21 21L21 20L18 20L18 19L17 19L17 20L15 20L15 19ZM30 20L30 21L32 21L32 20ZM26 21L26 22L27 22L27 21ZM4 23L4 24L3 24L3 25L5 25L5 23ZM29 23L29 24L30 24L30 25L29 25L29 28L30 28L30 25L31 25L31 24L30 24L30 23ZM25 25L25 28L28 28L28 25ZM26 26L26 27L27 27L27 26ZM11 28L11 29L12 29L12 28ZM31 29L31 31L30 31L30 32L29 32L29 33L30 33L30 32L31 32L31 33L32 33L32 32L31 32L31 31L33 31L33 30L32 30L32 29ZM12 30L12 31L13 31L13 30ZM14 32L14 33L15 33L15 32ZM16 32L16 33L17 33L17 32ZM20 32L20 33L21 33L21 32ZM0 0L0 7L7 7L7 0ZM1 1L1 6L6 6L6 1ZM2 2L2 5L5 5L5 2ZM26 0L26 7L33 7L33 0ZM27 1L27 6L32 6L32 1ZM28 2L28 5L31 5L31 2ZM0 26L0 33L7 33L7 26ZM1 27L1 32L6 32L6 27ZM2 28L2 31L5 31L5 28Z" fill="#000000"/></g></g></svg>
