<?xml version="1.0" encoding="UTF-8"?>
<svg xmlns="http://www.w3.org/2000/svg" version="1.1" width="300" height="300" viewBox="0 0 300 300"><rect x="0" y="0" width="300" height="300" fill="#ffffff"/><g transform="scale(8.571)"><g transform="translate(1,1)"><path fill-rule="evenodd" d="M10 0L10 1L11 1L11 0ZM13 0L13 1L12 1L12 2L15 2L15 4L16 4L16 5L18 5L18 7L17 7L17 6L16 6L16 7L17 7L17 10L16 10L16 9L15 9L15 10L14 10L14 8L15 8L15 5L13 5L13 4L14 4L14 3L11 3L11 2L10 2L10 3L9 3L9 4L8 4L8 5L10 5L10 7L9 7L9 6L8 6L8 8L6 8L6 9L8 9L8 10L6 10L6 11L5 11L5 10L4 10L4 8L2 8L2 9L0 9L0 11L1 11L1 12L0 12L0 13L1 13L1 14L0 14L0 15L1 15L1 16L2 16L2 15L3 15L3 17L0 17L0 22L3 22L3 23L4 23L4 24L5 24L5 25L7 25L7 24L6 24L6 23L8 23L8 22L10 22L10 20L11 20L11 22L12 22L12 21L14 21L14 22L13 22L13 24L12 24L12 23L11 23L11 24L10 24L10 23L9 23L9 24L8 24L8 27L9 27L9 24L10 24L10 25L12 25L12 26L11 26L11 28L9 28L9 29L8 29L8 31L9 31L9 32L10 32L10 33L11 33L11 30L12 30L12 26L13 26L13 27L14 27L14 28L13 28L13 29L14 29L14 28L15 28L15 27L16 27L16 26L15 26L15 25L14 25L14 26L13 26L13 24L17 24L17 25L18 25L18 26L17 26L17 28L16 28L16 29L15 29L15 31L14 31L14 33L16 33L16 32L15 32L15 31L16 31L16 29L17 29L17 31L19 31L19 30L18 30L18 29L17 29L17 28L18 28L18 26L20 26L20 27L19 27L19 29L20 29L20 32L19 32L19 33L20 33L20 32L21 32L21 33L22 33L22 30L23 30L23 31L24 31L24 32L25 32L25 33L31 33L31 32L30 32L30 30L31 30L31 28L32 28L32 29L33 29L33 28L32 28L32 25L33 25L33 20L32 20L32 18L33 18L33 17L32 17L32 15L31 15L31 14L30 14L30 12L29 12L29 11L30 11L30 10L29 10L29 11L27 11L27 8L25 8L25 6L24 6L24 5L25 5L25 0L23 0L23 1L20 1L20 2L19 2L19 1L16 1L16 0ZM16 2L16 4L18 4L18 3L19 3L19 4L20 4L20 3L21 3L21 4L23 4L23 3L22 3L22 2L20 2L20 3L19 3L19 2ZM10 3L10 5L11 5L11 3ZM12 5L12 6L11 6L11 8L9 8L9 11L10 11L10 12L8 12L8 11L6 11L6 12L5 12L5 11L4 11L4 10L3 10L3 12L5 12L5 14L4 14L4 13L3 13L3 14L4 14L4 15L5 15L5 14L7 14L7 13L12 13L12 14L8 14L8 15L6 15L6 16L4 16L4 17L3 17L3 18L2 18L2 19L1 19L1 21L3 21L3 22L4 22L4 23L6 23L6 22L8 22L8 20L9 20L9 19L11 19L11 18L14 18L14 15L15 15L15 14L16 14L16 16L15 16L15 17L17 17L17 18L18 18L18 19L16 19L16 18L15 18L15 19L14 19L14 21L15 21L15 19L16 19L16 22L15 22L15 23L17 23L17 22L18 22L18 23L20 23L20 24L18 24L18 25L20 25L20 26L21 26L21 25L22 25L22 27L21 27L21 28L20 28L20 29L21 29L21 30L22 30L22 28L23 28L23 25L24 25L24 24L25 24L25 23L26 23L26 24L27 24L27 23L28 23L28 24L29 24L29 25L30 25L30 26L29 26L29 29L28 29L28 30L27 30L27 29L26 29L26 30L27 30L27 31L26 31L26 32L29 32L29 29L30 29L30 27L31 27L31 25L32 25L32 24L31 24L31 23L32 23L32 22L31 22L31 23L30 23L30 22L29 22L29 20L31 20L31 19L30 19L30 17L29 17L29 18L28 18L28 17L27 17L27 18L28 18L28 19L24 19L24 18L25 18L25 17L26 17L26 16L27 16L27 15L28 15L28 14L29 14L29 12L28 12L28 13L27 13L27 11L26 11L26 10L25 10L25 8L24 8L24 6L23 6L23 5L22 5L22 6L21 6L21 5L20 5L20 6L19 6L19 7L18 7L18 8L20 8L20 6L21 6L21 8L22 8L22 10L20 10L20 9L19 9L19 10L20 10L20 11L19 11L19 13L18 13L18 11L16 11L16 10L15 10L15 11L13 11L13 10L12 10L12 12L11 12L11 9L12 9L12 8L13 8L13 7L14 7L14 6L13 6L13 5ZM12 6L12 7L13 7L13 6ZM22 6L22 8L23 8L23 12L24 12L24 13L25 13L25 12L26 12L26 11L25 11L25 12L24 12L24 8L23 8L23 6ZM28 8L28 9L29 9L29 8ZM31 9L31 10L32 10L32 11L31 11L31 12L33 12L33 9ZM20 11L20 12L21 12L21 13L19 13L19 17L20 17L20 18L19 18L19 19L18 19L18 20L17 20L17 21L18 21L18 22L21 22L21 23L25 23L25 20L23 20L23 19L22 19L22 18L21 18L21 17L22 17L22 16L23 16L23 18L24 18L24 16L25 16L25 15L26 15L26 14L25 14L25 15L24 15L24 16L23 16L23 15L22 15L22 14L23 14L23 13L22 13L22 12L21 12L21 11ZM1 12L1 13L2 13L2 12ZM6 12L6 13L7 13L7 12ZM12 12L12 13L13 13L13 14L12 14L12 15L13 15L13 14L15 14L15 13L14 13L14 12ZM16 13L16 14L17 14L17 15L18 15L18 13ZM1 14L1 15L2 15L2 14ZM20 15L20 16L21 16L21 15ZM29 15L29 16L30 16L30 15ZM6 16L6 17L7 17L7 18L4 18L4 20L5 20L5 21L4 21L4 22L6 22L6 21L7 21L7 20L8 20L8 19L7 19L7 18L8 18L8 16ZM9 16L9 18L10 18L10 16ZM11 16L11 17L13 17L13 16ZM31 17L31 18L32 18L32 17ZM20 18L20 20L18 20L18 21L21 21L21 22L22 22L22 21L21 21L21 20L22 20L22 19L21 19L21 18ZM2 19L2 20L3 20L3 19ZM6 19L6 20L7 20L7 19ZM12 19L12 20L13 20L13 19ZM26 20L26 21L27 21L27 22L26 22L26 23L27 23L27 22L28 22L28 23L29 23L29 22L28 22L28 20ZM23 21L23 22L24 22L24 21ZM1 23L1 24L0 24L0 25L1 25L1 24L2 24L2 25L3 25L3 24L2 24L2 23ZM22 24L22 25L23 25L23 24ZM25 25L25 28L28 28L28 25ZM14 26L14 27L15 27L15 26ZM26 26L26 27L27 27L27 26ZM9 30L9 31L10 31L10 30ZM24 30L24 31L25 31L25 30ZM32 31L32 32L33 32L33 31ZM17 32L17 33L18 33L18 32ZM0 0L0 7L7 7L7 0ZM1 1L1 6L6 6L6 1ZM2 2L2 5L5 5L5 2ZM26 0L26 7L33 7L33 0ZM27 1L27 6L32 6L32 1ZM28 2L28 5L31 5L31 2ZM0 26L0 33L7 33L7 26ZM1 27L1 32L6 32L6 27ZM2 28L2 31L5 31L5 28Z" fill="#000000"/></g></g></svg>
