<?xml version="1.0" encoding="UTF-8"?>
<svg xmlns="http://www.w3.org/2000/svg" version="1.1" width="300" height="300" viewBox="0 0 300 300"><rect x="0" y="0" width="300" height="300" fill="#ffffff"/><g transform="scale(9.677)"><g transform="translate(1,1)"><path fill-rule="evenodd" d="M8 0L8 3L9 3L9 4L10 4L10 5L8 5L8 9L7 9L7 8L6 8L6 9L7 9L7 10L5 10L5 8L2 8L2 9L0 9L0 11L1 11L1 10L4 10L4 11L5 11L5 12L3 12L3 11L2 11L2 12L1 12L1 13L0 13L0 15L1 15L1 16L3 16L3 14L4 14L4 15L5 15L5 14L6 14L6 15L7 15L7 14L6 14L6 13L7 13L7 12L8 12L8 10L10 10L10 11L11 11L11 14L10 14L10 13L9 13L9 14L8 14L8 15L9 15L9 16L10 16L10 17L7 17L7 16L4 16L4 17L0 17L0 21L1 21L1 18L2 18L2 19L3 19L3 18L4 18L4 20L3 20L3 21L4 21L4 20L5 20L5 21L7 21L7 20L8 20L8 22L10 22L10 21L11 21L11 20L13 20L13 21L12 21L12 22L11 22L11 23L12 23L12 24L10 24L10 23L9 23L9 24L8 24L8 27L9 27L9 26L10 26L10 25L13 25L13 26L12 26L12 29L13 29L13 27L15 27L15 28L18 28L18 29L20 29L20 28L21 28L21 27L22 27L22 29L23 29L23 26L24 26L24 29L25 29L25 26L26 26L26 25L27 25L27 24L28 24L28 25L29 25L29 24L28 24L28 23L27 23L27 24L26 24L26 23L25 23L25 22L26 22L26 21L27 21L27 22L29 22L29 20L28 20L28 19L27 19L27 18L29 18L29 16L28 16L28 15L27 15L27 16L26 16L26 15L25 15L25 17L21 17L21 14L22 14L22 16L23 16L23 13L22 13L22 12L23 12L23 10L25 10L25 11L24 11L24 12L25 12L25 13L24 13L24 14L26 14L26 13L27 13L27 14L29 14L29 12L28 12L28 11L27 11L27 9L28 9L28 10L29 10L29 8L26 8L26 9L24 9L24 8L21 8L21 10L20 10L20 9L19 9L19 8L20 8L20 7L21 7L21 4L20 4L20 3L21 3L21 1L20 1L20 0L19 0L19 1L18 1L18 2L19 2L19 4L18 4L18 3L17 3L17 2L14 2L14 3L13 3L13 2L12 2L12 0ZM15 0L15 1L16 1L16 0ZM9 1L9 2L11 2L11 1ZM19 1L19 2L20 2L20 1ZM10 3L10 4L12 4L12 5L11 5L11 7L10 7L10 6L9 6L9 8L10 8L10 9L11 9L11 10L12 10L12 9L13 9L13 8L15 8L15 10L13 10L13 12L12 12L12 15L10 15L10 14L9 14L9 15L10 15L10 16L12 16L12 17L13 17L13 16L14 16L14 17L17 17L17 18L15 18L15 20L14 20L14 21L13 21L13 22L14 22L14 24L13 24L13 25L14 25L14 26L15 26L15 27L17 27L17 26L18 26L18 27L19 27L19 28L20 28L20 27L19 27L19 26L23 26L23 25L20 25L20 24L19 24L19 25L18 25L18 24L17 24L17 23L18 23L18 22L20 22L20 21L18 21L18 20L19 20L19 19L20 19L20 20L22 20L22 18L21 18L21 19L20 19L20 18L19 18L19 17L18 17L18 16L19 16L19 15L20 15L20 14L19 14L19 13L21 13L21 12L22 12L22 10L21 10L21 11L20 11L20 10L18 10L18 11L17 11L17 9L18 9L18 6L19 6L19 7L20 7L20 5L18 5L18 4L16 4L16 5L15 5L15 3L14 3L14 4L13 4L13 3ZM12 5L12 8L11 8L11 9L12 9L12 8L13 8L13 6L14 6L14 7L15 7L15 8L16 8L16 7L17 7L17 6L18 6L18 5L17 5L17 6L16 6L16 7L15 7L15 6L14 6L14 5ZM15 10L15 11L14 11L14 12L17 12L17 11L16 11L16 10ZM6 11L6 12L7 12L7 11ZM18 11L18 12L20 12L20 11ZM26 11L26 12L27 12L27 11ZM1 13L1 15L2 15L2 14L3 14L3 13ZM15 13L15 16L18 16L18 15L19 15L19 14L18 14L18 13L17 13L17 14L18 14L18 15L16 15L16 13ZM12 15L12 16L13 16L13 15ZM5 17L5 20L7 20L7 19L9 19L9 18L7 18L7 17ZM10 17L10 18L11 18L11 19L10 19L10 20L11 20L11 19L13 19L13 18L11 18L11 17ZM25 17L25 18L24 18L24 20L25 20L25 18L27 18L27 17ZM6 18L6 19L7 19L7 18ZM18 18L18 19L17 19L17 20L15 20L15 21L14 21L14 22L16 22L16 23L17 23L17 22L18 22L18 21L17 21L17 20L18 20L18 19L19 19L19 18ZM26 19L26 20L27 20L27 19ZM16 21L16 22L17 22L17 21ZM21 21L21 24L24 24L24 21ZM22 22L22 23L23 23L23 22ZM14 24L14 25L15 25L15 26L17 26L17 24ZM24 25L24 26L25 26L25 25ZM27 26L27 28L26 28L26 29L27 29L27 28L28 28L28 26ZM10 27L10 28L11 28L11 27ZM0 0L0 7L7 7L7 0ZM1 1L1 6L6 6L6 1ZM2 2L2 5L5 5L5 2ZM22 0L22 7L29 7L29 0ZM23 1L23 6L28 6L28 1ZM24 2L24 5L27 5L27 2ZM0 22L0 29L7 29L7 22ZM1 23L1 28L6 28L6 23ZM2 24L2 27L5 27L5 24Z" fill="#000000"/></g></g></svg>
